<svg width="62" height="62" viewBox="0 0 62 62" fill="none" xmlns="http://www.w3.org/2000/svg">
<path d="M47.8523 49.658C47.5431 49.9291 47.2338 50.2002 46.9246 50.4713C46.77 50.5875 46.6154 50.7424 46.4608 50.8586C46.0355 51.2071 46.9633 50.4713 46.5767 50.7811C45.9196 51.2458 45.3011 51.7105 44.6053 52.1365C43.2911 52.9885 41.8995 53.6856 40.4306 54.3052C40.6625 54.189 40.8944 54.1116 41.1264 53.9954C38.8071 54.9636 36.3718 55.6219 33.8593 55.9705C34.1298 55.9317 34.3618 55.893 34.6324 55.8543C32.1971 56.1641 29.6845 56.2028 27.2493 55.8543C27.5199 55.893 27.7518 55.9317 28.0224 55.9705C25.5871 55.6219 23.1905 54.9636 20.9099 53.9954C21.1418 54.1116 21.3737 54.189 21.6057 54.3052C20.3687 53.763 19.1318 53.1434 17.9721 52.4463C17.3923 52.0978 16.8125 51.7105 16.2713 51.3233C16.0007 51.1296 15.7301 50.936 15.4595 50.7424C15.073 50.4326 15.9621 51.1296 15.5755 50.8586C15.4209 50.7424 15.2663 50.6262 15.1117 50.51C14.068 49.658 13.0629 48.7286 12.1739 47.7217C11.942 47.4893 11.71 47.2183 11.5168 46.9472C11.4394 46.831 11.3235 46.7148 11.2462 46.5986C11.1689 46.4825 11.0142 46.2114 10.8983 46.1339C10.8983 46.1339 11.3621 46.7535 11.0915 46.3663C11.0529 46.2888 11.0142 46.2501 10.9756 46.1726C10.8596 46.0177 10.7823 45.9016 10.6663 45.7467C10.4731 45.4756 10.2798 45.2045 10.0865 44.8947C9.19746 43.5392 8.42436 42.0676 7.76723 40.5573C7.8832 40.7896 7.96051 41.022 8.07647 41.2544C7.07144 38.892 6.41431 36.4135 6.06642 33.8576C6.10507 34.1287 6.14373 34.361 6.18238 34.6321C5.83449 32.0762 5.83449 29.5202 6.14373 26.9643C6.10507 27.2353 6.06642 27.4677 6.02776 27.7388C6.337 25.299 6.99413 22.898 7.96051 20.6518C7.84454 20.8842 7.76723 21.1165 7.65127 21.3489C8.23109 20.0322 8.88822 18.7542 9.66132 17.515C10.0092 16.9341 10.3958 16.3919 10.821 15.811C10.9369 15.6561 11.0142 15.5399 11.1302 15.385C11.4394 14.9977 10.705 15.9272 11.0915 15.4625C11.3235 15.1914 11.5554 14.8816 11.7873 14.6105C12.6764 13.5648 13.6428 12.5967 14.6478 11.706C14.9184 11.4736 15.1503 11.28 15.4209 11.0476C15.5369 10.9314 15.6915 10.8153 15.8074 10.7378C16.2713 10.3505 15.3049 11.1251 15.8074 10.7378C16.3486 10.3118 16.9284 9.92455 17.4696 9.57601C18.7839 8.72402 20.2141 7.98822 21.6443 7.36859C21.4124 7.48477 21.1805 7.56223 20.9485 7.67841C23.1132 6.78769 25.3552 6.12934 27.6745 5.81953C27.4039 5.85826 27.172 5.89698 26.9014 5.93571C29.3366 5.6259 31.7719 5.6259 34.2072 5.97443C33.9366 5.93571 33.7046 5.89698 33.4341 5.85826C36.0626 6.24552 38.6138 6.9426 41.0877 7.98822C40.8558 7.87204 40.6239 7.79459 40.3919 7.67841C42.2474 8.49166 44.0642 9.45983 45.7263 10.5829C46.1515 10.854 46.5381 11.1638 46.9246 11.4349C47.1952 11.6285 46.3448 10.9702 46.77 11.3187C46.886 11.3962 46.9633 11.4736 47.0792 11.5511C47.2725 11.706 47.4658 11.8609 47.6204 12.0158C48.5481 12.7903 49.3985 13.6036 50.2103 14.4943C51.254 15.6174 53.264 15.6174 54.3077 14.4943C55.39 13.2938 55.4287 11.5511 54.3077 10.3893C47.6204 3.45721 37.6088 -0.802719 27.8678 0.126719C23.1519 0.552712 18.6292 2.06305 14.6478 4.58028C10.7437 7.05878 7.41934 10.3505 4.90677 14.1845C-0.50491 22.3945 -1.47128 33.238 2.16228 42.3387C3.90174 46.7148 6.49162 50.6649 10.0092 53.8405C13.4495 56.9386 17.5083 59.301 21.9536 60.6564C30.9988 63.4834 41.3197 61.7795 48.9733 56.2028C50.017 55.467 51.022 54.6538 51.9497 53.8018C53.0707 52.7949 53.0707 50.7037 51.9497 49.6968C50.7514 48.5737 49.0506 48.5737 47.8523 49.658Z" fill="#F4C850"/>
<path d="M53.0707 43.0358C52.6069 43.8491 52.143 44.6623 51.6018 45.3981C51.4086 45.7467 51.2926 46.0952 51.254 46.4825C51.1766 46.8697 51.1766 47.257 51.2926 47.6443C51.3699 48.0315 51.5632 48.3413 51.7951 48.6511C51.9884 48.961 52.259 49.232 52.6069 49.387C52.8388 49.5031 53.0707 49.5806 53.3027 49.6968C53.8052 49.8517 54.3463 49.8517 54.8489 49.6968C55.0808 49.5806 55.3127 49.5031 55.5446 49.387C55.9698 49.1159 56.3177 48.7673 56.5883 48.3413C57.1295 47.5668 57.5934 46.7923 58.0572 45.979C58.2505 45.6305 58.3664 45.2819 58.4051 44.8947C58.4824 44.5074 58.4824 44.1201 58.3665 43.7329C58.2891 43.3456 58.0959 43.0358 57.8639 42.726C57.6707 42.4162 57.4001 42.1451 57.0522 41.9902C56.8203 41.874 56.5883 41.7965 56.3564 41.6804C55.8539 41.5255 55.3127 41.5255 54.8102 41.6804C54.5783 41.7965 54.3463 41.874 54.1144 41.9902C53.6892 42.2613 53.3413 42.6098 53.0707 43.0358Z" fill="#F4C850"/>
<path d="M56.2018 30.9918C56.2018 32.2311 56.1245 33.4703 55.9698 34.7096C56.0085 34.4385 56.0471 34.2061 56.0858 33.935C55.8925 35.213 55.6606 36.4523 55.3127 37.6915C54.9261 39.1631 55.8152 40.9058 57.3228 41.2544C58.8689 41.6029 60.4538 40.7896 60.879 39.2406C61.6134 36.5684 62 33.7801 62 30.9918C62 29.4815 60.6471 28.0099 59.1009 28.0873C57.516 28.1648 56.2018 29.3653 56.2018 30.9918Z" fill="#F4C850"/>
<path d="M33.55 34.5934C34.4004 27.5451 35.2122 20.5356 36.0626 13.4874C36.1399 12.7903 35.676 11.8996 35.2122 11.4349C34.7097 10.9314 33.8979 10.5442 33.1635 10.5829C32.429 10.6216 31.6173 10.854 31.1148 11.4349C30.5736 12.0545 30.3803 12.6741 30.2643 13.4874C29.4139 20.5356 28.6022 27.5451 27.7518 34.5934C27.6745 35.2905 28.1383 36.1812 28.6022 36.6459C29.1047 37.1493 29.9165 37.5366 30.6509 37.4979C31.3853 37.4592 32.1971 37.2268 32.6996 36.6459C33.2408 36.065 33.4727 35.4066 33.55 34.5934Z" fill="#F4C850"/>
<path d="M14.3386 30.1398C19.1704 32.4247 24.0023 34.7096 28.7955 36.9944C29.5299 37.343 30.2257 37.4979 31.0375 37.3043C31.6946 37.1106 32.429 36.6072 32.7769 35.9876C33.4727 34.7096 33.2021 32.6958 31.7332 31.9987C26.9014 29.7139 22.0695 27.429 17.2763 25.1441C16.5419 24.7956 15.8461 24.6407 15.0343 24.8343C14.3772 25.0279 13.6428 25.5314 13.2949 26.151C12.5991 27.4677 12.8697 29.4428 14.3386 30.1398Z" fill="#F4C850"/>
</svg>
