<svg width="430" height="454" viewBox="0 0 430 454" fill="none" xmlns="http://www.w3.org/2000/svg">
<path d="M324.202 228.97C323.844 228.325 323.772 227.752 323.844 227.179C320.547 223.239 317.321 219.298 313.952 215.358L61.0702 218.224V339.443L62.0737 387.372L72.5388 402.704L103.074 410.155H295.459L315.458 402.632L325.349 389.235L326.424 294.165V232.624C325.636 231.406 324.919 230.188 324.202 228.97Z" fill="#7F9456"/>
<path d="M62.0737 190.785V158.187L71.822 141.996C103.576 120.288 135.329 98.652 167.083 76.9443C185.863 64.1202 204.642 51.2962 223.351 38.5438C232.31 40.0483 241.27 41.6244 250.23 43.1289L265.139 49.4335L62.0737 190.785Z" fill="#7F9456"/>
<path d="M131.889 209.412L141.924 191.429L158.338 185.698L175.899 190.856L184.787 204.182L182.637 214.427L131.889 209.412Z" fill="#F4F1EA"/>
<path d="M243.277 165.853L216.039 176.958L201.704 194.797L196.471 209.985L205.861 213.495L265.139 216.648L310.583 214.283L336.316 249.46L366.779 294.093L387.065 319.956L387.996 305.198L380.613 269.52L360.973 230.188L335.671 202.176L310.583 184.05L277.54 168.575L272.45 168.36L268.58 168.719L279.332 136.981L324.632 31.5944L302.842 46.4961L267.433 87.834L250.087 132.181L246.933 157.901L243.277 165.853Z" fill="#F4F1EA"/>
<path d="M167.728 214.857C171.169 214.857 171.169 209.483 167.728 209.483C164.287 209.483 164.216 214.857 167.728 214.857Z" fill="#415239"/>
<path d="M234.962 196.301C235.751 199.883 237.4 202.892 239.98 205.471C241.629 207.119 244.567 205.901 244.567 203.537C244.567 199.597 242.13 196.373 239.837 193.364C238.188 191.143 233.816 192.289 234.891 195.441C236.826 201.029 239.693 205.973 243.564 210.415C245.428 212.564 248.653 210.271 248.08 207.836C247.22 204.397 246.144 201.316 243.851 198.594C242.919 197.447 241.055 197.662 240.052 198.594C238.045 200.528 239.048 204.039 239.693 206.403C240.625 209.77 242.417 212.636 244.639 215.286C245.858 216.719 248.796 216.074 249.155 214.068C249.728 210.271 249.298 198.235 242.489 201.101C237.758 203.036 235.321 211.203 240.983 213.567C246.718 216.003 250.373 207.621 245.929 204.11C244.066 202.606 241.199 202.749 239.622 204.612C237.758 206.761 238.905 209.483 240.84 211.131C243.421 213.424 247.291 209.627 244.639 207.334C242.919 208.337 242.632 208.194 243.779 206.761C242.919 205.328 242.919 205.543 243.707 207.334C244.209 209.125 244.281 210.916 243.994 212.707C245.499 212.277 247.005 211.919 248.51 211.489C246.144 208.767 243.922 204.54 244.352 200.815C244.066 201.459 243.851 202.104 243.564 202.749C243.636 202.677 243.779 202.534 243.851 202.462C242.56 202.462 241.342 202.462 240.052 202.462C241.7 204.397 242.274 206.904 242.919 209.34C244.424 208.48 245.929 207.621 247.435 206.761C244.209 203.036 241.844 198.809 240.195 194.152C238.546 194.868 236.898 195.513 235.249 196.229C236.754 198.307 239.192 201.029 239.263 203.68C240.768 203.035 242.345 202.391 243.851 201.746C241.915 199.74 240.84 197.591 240.195 194.94C239.335 191.501 234.174 192.934 234.962 196.301Z" fill="#415239"/>
<path d="M67.0912 189.925C70.5318 190.068 75.9793 174.952 82.072 158.832C99.9917 111.691 147.228 94.64 145.293 91.4161C142.927 87.3325 117.553 104.813 94.1857 125.661C86.6594 132.324 68.8115 139.202 64.5108 156.468C59.78 175.811 62.7188 189.782 67.0912 189.925Z" fill="#5C794F"/>
<path d="M185.504 104.24C184.357 102.951 197.618 94.2102 207.796 75.2965C218.261 55.953 216.039 43.7021 224.641 41.0513C230.088 39.3319 232.095 43.8454 252.165 47.1409C256.609 47.8574 258.33 47.929 258.832 49.1469C260.48 53.2306 245.284 61.971 222.419 78.1622C198.836 94.7117 186.651 105.458 185.504 104.24Z" fill="#5C794F"/>
<path d="M87.2329 216.863C70.2451 226.463 77.2696 256.553 83.0755 326.906C84.4374 343.025 89.5266 404.638 80.5668 405.928C78.3447 406.286 75.4776 402.919 75.9077 402.274C76.6961 401.128 88.5948 409.367 106.514 411.444C116.764 412.59 126.728 411.516 126.728 411.444C126.728 411.373 122.57 411.516 121.495 411.444C97.698 409.868 87.5196 223.382 114.327 217.794C115.403 217.579 118.915 217.149 118.915 216.576C118.915 215.143 99.4899 209.913 87.2329 216.863Z" fill="#5C794F"/>
<path d="M306.713 403.205C307.143 403.993 307.716 404.423 308.29 404.495C309.508 404.638 311.085 403.134 310.87 402.632C310.655 402.202 309.15 402.489 306.713 403.205Z" fill="#5C794F"/>
<path d="M263.562 214.212C263.562 214.283 265.498 214.283 268.651 214.355C268.436 214.283 268.293 214.212 268.078 214.14C266.071 213.639 263.562 214.14 263.562 214.212Z" fill="#5C794F"/>
<path d="M312.447 213.495C311.802 213.639 311.229 213.854 310.655 214.283C311.587 214.283 312.375 214.212 313.092 214.212C312.805 213.997 312.662 213.782 312.447 213.495Z" fill="#5C794F"/>
<path d="M310.583 214.283C300.118 214.498 278.4 214.427 268.58 214.283C285.281 220.731 298.971 318.595 258.831 380.208C249.227 394.895 236.396 401.128 240.983 408.364C246.933 417.677 278.328 410.584 285.854 408.937C294.097 407.074 301.982 404.423 306.569 403.205C303.344 397.904 302.985 377.486 302.842 364.375C301.48 253.4 302.77 219.872 310.583 214.283Z" fill="#5C794F"/>
<path d="M156.546 409.796C160.345 410.011 164.216 410.298 168.015 410.083C168.373 410.083 168.66 410.011 169.018 410.011C145.221 390.095 144.289 225.531 173.319 218.797C175.326 218.367 178.408 218.367 178.408 218.224C178.408 217.579 126.656 219.872 106.729 219.728C114.041 226.606 114.256 255.335 114.256 307.706C114.256 371.396 113.897 400.268 109.955 409.796C110.027 409.796 110.098 409.868 110.17 409.868C113.037 409.51 115.904 409.295 118.7 410.226C124.577 410.155 131.029 410.226 136.189 410.226C142.64 410.298 148.876 410.441 154.539 410.584C154.897 410.155 155.614 409.796 156.546 409.796Z" fill="#9EB26E"/>
<path d="M118.198 219.155C118.198 219.513 121.137 219.728 125.939 219.728C125.151 219.012 124.291 218.51 123.287 218.224C120.778 217.651 118.126 218.797 118.198 219.155Z" fill="#9EB26E"/>
<path d="M235.464 197.018C235.751 200.6 236.754 203.895 238.69 206.904C239.765 208.695 242.202 208.624 243.349 206.904C245.714 203.179 243.636 197.519 239.55 195.728C237.686 194.94 235.751 195.728 234.891 197.591C233.959 199.668 234.747 202.534 235.464 204.54C236.181 206.474 237.113 208.767 239.263 209.412C241.485 210.056 243.206 208.624 243.636 206.474C244.496 202.606 241.7 198.164 237.615 197.806C232.382 197.376 231.164 203.465 232.955 207.334C234.604 211.059 239.908 212.922 242.919 209.483C245.428 206.618 243.636 201.244 239.55 201.316C233.744 201.388 236.253 208.051 238.26 210.773C241.342 214.928 247.004 211.489 245.213 206.833C243.922 203.537 237.471 199.31 236.253 204.97C235.321 208.91 239.335 213.352 243.349 211.633C247.22 209.985 246.574 204.253 242.202 203.895C237.901 203.609 236.611 209.412 240.41 211.203C244.567 213.137 247.363 207.836 244.639 204.755C241.915 201.674 236.109 203.107 234.962 206.904C234.389 208.695 234.317 210.916 235.536 212.421C236.969 214.14 239.335 214.212 241.055 212.922C245.213 209.77 242.56 203.322 238.26 201.889C236.038 201.173 233.171 201.459 231.809 203.609C230.733 205.328 231.092 207.692 232.382 209.197C235.464 212.707 241.27 210.916 242.56 206.761C244.352 201.173 239.55 197.089 235.249 194.653C233.314 193.579 230.518 195.37 231.307 197.662C232.239 200.313 234.102 202.247 236.898 202.892C240.267 203.68 241.7 198.522 238.331 197.734C237.4 197.519 236.826 197.232 236.468 196.229C235.178 197.232 233.816 198.235 232.525 199.238C234.819 200.528 238.761 202.606 237.041 205.543C236.683 206.188 235.178 203.967 236.109 206.761C236.109 206.761 237.543 207.907 237.615 207.979C237.901 208.839 238.69 209.197 239.908 208.982C239.98 208.695 240.052 208.48 240.123 208.194C240.195 208.265 240.195 208.337 240.267 208.409C241.199 207.621 241.7 206.761 241.7 205.686C241.27 206.188 240.912 206.761 240.482 207.262C240.625 207.191 240.84 207.048 240.983 206.976C240.267 207.048 239.622 207.191 238.905 207.262C239.478 208.194 240.195 208.265 240.912 207.406C241.629 207.477 242.274 207.621 242.99 207.692C242.489 207.191 242.059 206.618 241.772 205.973C241.342 204.468 240.41 204.54 238.905 206.188C239.263 205.758 239.12 205.543 238.403 205.615C238.045 205.185 237.83 204.755 237.83 204.253C237.686 203.537 237.256 202.391 238.116 203.465C238.761 204.325 238.761 204.97 238.403 205.901C239.048 205.256 239.622 204.683 240.267 204.039C241.342 204.54 241.629 204.397 241.127 203.609C240.912 203.107 240.697 202.606 240.553 202.033C240.338 201.388 239.765 200.027 240.195 199.453C239.693 199.883 239.12 200.241 238.618 200.671C238.761 200.6 238.976 200.6 239.12 200.528C238.403 200.456 237.758 200.313 237.041 200.241C238.331 200.958 239.837 202.606 238.905 204.039C240.482 204.039 241.987 204.039 243.564 204.039C242.202 201.818 241.342 199.453 241.127 196.803C240.553 193.65 235.178 193.579 235.464 197.018Z" fill="#415239"/>
<path d="M249.298 161.339C251.95 161.913 255.391 136.981 270.013 107.751C292.52 62.759 324.919 40.7647 322.124 37.4691C319.973 34.9617 299.975 46.2096 284.349 62.1859C262.63 84.3951 255.893 109.255 252.81 121.291C247.865 140.706 246.933 160.838 249.298 161.339Z" fill="#F4C850"/>
<path d="M248.223 166.354C249.728 168.934 228.726 173.877 222.204 189.925C217.186 202.247 228.368 206.761 222.204 212.636C217.688 216.934 209.875 215.143 208.37 215.215C207.295 215.215 197.905 218.08 195.181 213.137C192.815 208.91 196.543 203.322 201.632 194.797C206.076 187.417 211.237 178.749 221.702 171.799C232.382 164.707 246.933 163.99 248.223 166.354Z" fill="#F4C850"/>
<path d="M262.415 181.543C267.935 181.973 276.106 183.692 292.377 187.059C311.945 191.071 317.034 193.579 317.68 192.146C318.898 189.71 305.136 179.895 291.589 173.805C282.7 169.793 274.529 166.283 265.139 168.647C256.896 170.653 249.298 176.743 250.158 179.537C250.732 181.256 254.817 180.97 262.415 181.543Z" fill="#F4C850"/>
<path d="M315.529 191.501C313.952 193.149 332.589 206.833 350.293 236.564C372.084 273.174 379.968 313.222 380.255 313.15C380.327 313.15 379.108 309.067 379.395 308.923C379.968 308.709 384.197 322.034 386.204 321.676C388.211 321.318 387.781 307.634 386.419 296.601C385.129 286.356 381.975 263.072 366.278 238.284C346.566 207.262 317.393 189.567 315.529 191.501Z" fill="#F4C850"/>
<path d="M142.569 215.215C143.214 218.152 112.249 218.224 89.0965 240.648C68.3814 260.708 61.0702 291.729 61.1418 307.562C61.1418 308.565 61.1418 312.076 61.2135 312.076C61.2135 312.076 67.4496 278.905 61.2135 240.648C59.2065 228.54 56.6261 219.872 61.5719 215.215C66.6611 210.343 75.4059 214.212 89.1682 216.433C119.847 221.376 141.924 212.636 142.569 215.215Z" fill="#F4C850"/>
<path d="M157.191 81.8876C168.731 72.8607 185.504 62.3292 207.295 56.5978C235.464 49.2186 259.62 53.1589 260.05 49.5768C260.337 46.8543 247.004 42.5558 235.321 41.6244C235.321 41.6244 225.859 40.908 216.039 43.0573C188.801 49.0753 160.56 78.3055 157.191 81.8876Z" fill="#F4C850"/>
<path d="M161.922 187.919C162.209 188.922 156.618 189.423 151.815 195.083C146.153 201.746 148.303 207.692 142.927 211.131C139.63 213.209 134.756 213.639 132.82 211.561C130.097 208.624 133.179 200.886 137.049 196.229C145.436 186.128 161.42 186.271 161.922 187.919Z" fill="#F4C850"/>
<path d="M238.045 217.794L239.478 412.949L247.793 411.373V216.648L238.045 217.794Z" fill="#D96F44"/>
<path d="M285.639 215.071L289.367 409.725L255.606 409.152V214.427L285.639 215.071Z" fill="#F4C850"/>
<path d="M98.9881 123.942C97.1245 129.745 105.368 133.327 107.59 143.859C109.74 154.318 103.862 161.125 106.156 162.772C111.03 166.139 136.619 135.476 138.555 137.124C139.128 137.626 137.91 140.921 136.046 141.279C132.175 141.996 124.577 130.318 124.506 118.569C124.434 108.969 129.523 102.807 127.946 101.733C126.226 100.658 121.567 108.754 109.883 116.276C102.859 120.79 100.063 120.79 98.9881 123.942Z" fill="#D96F44"/>
<path d="M23.7256 257.126C28.4564 273.675 43.4372 285.21 60.7118 285.425C64.1523 285.425 64.1523 280.051 60.7118 280.051C45.8026 279.908 32.9721 269.95 28.8865 255.693C27.9546 252.326 22.7938 253.759 23.7256 257.126Z" fill="#415239"/>
<path d="M349.648 270.451C343.341 276.541 335.169 279.836 326.424 280.051C322.984 280.123 322.984 285.496 326.424 285.425C336.603 285.21 346.136 281.341 353.447 274.248C355.884 271.812 352.085 268.015 349.648 270.451Z" fill="#415239"/>
<path d="M58.418 218.152C58.418 271.311 58.418 324.542 58.418 377.701C58.418 381.139 63.7939 381.139 63.7939 377.701C63.7939 324.542 63.7939 271.311 63.7939 218.152C63.7939 214.713 58.418 214.713 58.418 218.152Z" fill="#415239"/>
<path d="M323.701 279.263C323.844 312.935 323.844 346.608 323.701 380.208C323.701 383.647 329.076 383.647 329.076 380.208C329.22 346.536 329.22 312.864 329.076 279.263C329.076 275.824 323.701 275.824 323.701 279.263Z" fill="#415239"/>
<path d="M323.701 235.275C323.701 244.732 323.701 254.188 323.701 263.645C323.701 267.084 329.076 267.084 329.076 263.645C329.076 254.188 329.076 244.732 329.076 235.275C329.076 231.764 323.701 231.764 323.701 235.275Z" fill="#415239"/>
<path d="M137.623 414.31C150.525 414.525 163.356 414.382 176.258 414.167C179.698 414.095 179.698 408.722 176.258 408.793C163.356 409.008 150.525 409.152 137.623 408.937C134.111 408.937 134.111 414.31 137.623 414.31Z" fill="#415239"/>
<path d="M58.418 380.28C58.9198 393.462 66.231 403.993 78.6314 408.65C85.1542 411.086 92.1787 411.874 99.0598 412.519C107.088 413.235 115.116 413.665 123.216 414.023C126.656 414.167 126.656 408.793 123.216 408.65C110.528 408.149 96.9095 408.149 84.5807 404.925C78.8464 403.42 73.1122 400.841 69.3132 396.113C65.7293 391.671 64.009 386.011 63.7939 380.28C63.6506 376.769 58.2747 376.769 58.418 380.28Z" fill="#415239"/>
<path d="M323.701 380.28C324.274 389.307 319.4 397.689 311.444 401.987C306.999 404.352 301.695 405.283 296.821 406.286C291.015 407.432 285.209 408.22 279.332 408.722C256.824 410.656 234.246 408.793 211.667 409.152C208.226 409.223 208.226 414.596 211.667 414.525C236.898 414.095 262.272 416.531 287.431 413.235C297.61 411.874 309.723 410.585 318.038 404.065C325.349 398.405 329.578 389.593 329.005 380.351C328.861 376.841 323.486 376.769 323.701 380.28Z" fill="#415239"/>
<path d="M49.2432 217.937C117.481 218.152 185.791 218.152 254.029 218.08C273.311 218.08 292.592 218.009 311.874 217.937C315.314 217.937 315.314 212.564 311.874 212.564C243.564 212.707 175.326 212.779 107.016 212.636C87.7346 212.636 68.5248 212.564 49.2432 212.492C45.8026 212.492 45.8026 217.866 49.2432 217.937Z" fill="#415239"/>
<path d="M52.8271 204.468C110.242 163.13 167.585 121.864 224.999 80.5264C241.27 68.777 257.541 57.0993 273.812 45.3498C276.608 43.3439 273.884 38.6871 271.088 40.6931C213.674 82.0309 156.331 123.297 98.9165 164.635C82.6454 176.384 66.3744 188.062 50.0316 199.812C47.3079 201.818 50.0316 206.474 52.8271 204.468Z" fill="#415239"/>
<path d="M65.9443 189.925C64.8691 180.683 64.009 170.94 65.5859 161.698C66.1593 158.259 67.0195 154.605 69.0982 151.668C71.1768 148.73 74.6891 146.509 77.4846 144.217C90.9601 133.255 104.651 122.581 118.556 112.121C147.515 90.2698 177.046 68.8487 208.011 49.7201C211.81 47.3558 215.609 44.6334 220.053 43.6304C224.784 42.4841 229.802 42.9856 234.532 43.9886C242.704 45.7081 250.23 49.2902 258.186 51.7261C261.484 52.729 262.917 47.5708 259.62 46.5678C244.782 42.1259 228.368 32.8124 212.957 40.6214C205.574 44.3469 198.55 49.3618 191.597 53.8753C183.784 58.962 176.043 64.1919 168.373 69.4934C136.691 91.4161 105.798 114.485 75.9076 138.772C72.6104 141.423 68.8831 143.93 66.016 147.083C63.3639 150.02 61.8586 153.817 60.9985 157.542C58.4897 168.074 59.4216 179.393 60.6401 189.997C60.9268 193.364 66.3027 193.364 65.9443 189.925Z" fill="#415239"/>
<path d="M135.114 210.128C132.677 206.689 137.265 200.098 139.343 197.519C142.497 193.579 146.941 190.928 151.744 189.495C161.85 186.558 172.96 189.065 178.838 198.235C180.487 200.815 184.214 207.621 180.917 210.271C179.125 211.704 175.971 211.131 174.107 210.2C171.24 208.839 171.24 206.833 169.95 204.397C168.158 201.03 164.502 202.391 163.499 205.543C162.782 207.692 162.782 209.698 160.417 210.558C158.266 211.274 155.184 211.274 153.177 210.2C150.74 208.982 150.167 206.546 148.733 204.468C147.801 203.036 146.224 202.104 144.576 203.036C142.927 203.895 143.214 205.4 142.712 206.833C141.709 209.555 137.408 212.063 134.827 209.698C132.319 207.334 128.52 211.131 131.028 213.495C133.896 216.218 138.268 216.433 141.852 215C146.153 213.28 146.941 210.056 148.375 206.188C147.945 206.689 147.586 207.262 147.156 207.764C147.228 207.692 147.3 207.692 147.371 207.621C146.654 207.692 146.009 207.836 145.293 207.907C143.716 207.262 144.432 207.334 144.791 208.409C145.006 209.053 145.436 209.627 145.794 210.2C146.726 211.633 147.873 212.994 149.235 213.997C151.529 215.716 154.467 216.289 157.263 216.289C159.987 216.289 162.997 215.716 165.148 213.997C166.223 213.137 166.939 212.134 167.513 210.916C167.871 210.128 168.086 209.34 168.301 208.48C168.373 208.194 168.445 207.907 168.516 207.692C169.018 206.546 168.588 206.546 167.226 207.764C166.581 207.477 165.936 207.262 165.291 206.976C165.936 207.692 166.294 210.057 166.939 211.131C168.158 212.922 169.95 214.212 171.885 215.072C175.254 216.648 179.555 217.221 182.995 215.358C190.235 211.489 187.368 201.961 184.071 196.444C175.039 180.97 153.464 179.107 139.845 189.71C134.397 193.937 125.438 205.686 130.598 212.922C132.462 215.645 137.193 212.994 135.114 210.128Z" fill="#415239"/>
<path d="M144.791 212.779C144.862 212.851 144.862 212.922 144.934 212.994C145.077 213.209 145.221 213.352 145.364 213.567C145.579 213.71 145.723 213.854 145.938 213.997C146.153 214.068 146.368 214.212 146.583 214.283C146.941 214.427 147.3 214.427 147.658 214.355C147.873 214.355 148.16 214.283 148.303 214.14C148.518 214.068 148.733 213.997 148.876 213.782C149.091 213.639 149.235 213.495 149.378 213.28C149.593 212.994 149.808 212.707 149.88 212.349V212.277C149.88 212.062 149.952 211.776 149.952 211.561V211.489C149.952 211.274 149.88 210.988 149.88 210.773C149.88 210.773 149.88 210.773 149.88 210.701C149.737 210.128 149.45 209.77 149.091 209.34C148.876 209.054 148.59 208.91 148.231 208.767C147.945 208.624 147.586 208.552 147.228 208.552C146.869 208.552 146.511 208.624 146.224 208.767C145.866 208.91 145.579 209.054 145.364 209.34C145.221 209.555 145.077 209.698 144.934 209.913C144.719 210.343 144.576 210.773 144.576 211.274C144.576 211.489 144.647 211.776 144.647 211.991C144.791 212.421 145.006 212.851 145.364 213.209C145.221 212.994 145.077 212.851 144.934 212.636C144.934 212.636 144.934 212.707 145.006 212.707C144.934 212.492 144.791 212.277 144.719 212.062C144.719 212.134 144.719 212.134 144.719 212.206C144.719 211.991 144.647 211.704 144.647 211.489V211.561C144.647 211.346 144.719 211.059 144.719 210.845V210.916C146.368 210.701 148.016 210.486 149.665 210.271C149.593 210.2 149.593 210.128 149.522 210.057C149.378 209.77 149.091 209.483 148.805 209.268C148.518 209.054 148.231 208.839 147.873 208.767C147.515 208.624 147.156 208.624 146.798 208.695C146.439 208.695 146.081 208.839 145.794 208.982C145.579 209.125 145.436 209.268 145.221 209.412C144.862 209.77 144.647 210.128 144.504 210.63C144.504 210.845 144.432 211.131 144.432 211.346C144.432 211.919 144.576 212.349 144.791 212.779Z" fill="#415239"/>
<path d="M149.378 209.268C149.45 209.412 149.522 209.627 149.593 209.842V209.77C149.593 209.985 149.665 210.271 149.665 210.486V210.415C147.873 210.63 146.153 210.916 144.361 211.131C144.432 211.418 144.504 211.561 144.576 211.848C144.647 212.063 144.791 212.277 144.934 212.492C145.078 212.707 145.221 212.851 145.364 213.065C145.579 213.352 145.866 213.495 146.224 213.639C146.726 213.854 147.443 213.925 147.945 213.782C148.375 213.639 148.805 213.424 149.163 213.065C149.665 212.564 149.88 211.848 149.952 211.131C149.952 210.558 149.88 209.985 149.808 209.412C148.16 210.128 146.511 210.773 144.862 211.489C144.934 211.704 145.006 211.848 145.149 212.062C145.293 212.277 145.436 212.421 145.579 212.636C145.794 212.922 146.081 213.066 146.439 213.209C146.941 213.424 147.658 213.495 148.16 213.352C148.59 213.209 149.02 212.994 149.378 212.636C149.665 212.421 149.808 212.134 149.952 211.776C150.095 211.489 150.167 211.131 150.167 210.773C150.167 210.558 150.167 210.415 150.095 210.2C150.095 209.985 150.023 209.842 150.023 209.627C149.808 208.982 149.378 208.337 148.805 208.051C148.59 207.979 148.375 207.836 148.16 207.764C147.801 207.621 147.443 207.621 147.085 207.692C146.511 207.764 145.938 207.979 145.508 208.409C145.006 208.91 144.719 209.555 144.719 210.343C144.719 210.63 144.791 210.916 144.862 211.203C145.006 211.848 145.508 212.492 146.081 212.779C146.654 213.137 147.515 213.28 148.16 213.065C148.805 212.851 149.45 212.421 149.737 211.848C149.808 211.633 149.952 211.418 150.023 211.203C150.167 210.701 150.167 210.271 150.023 209.77C149.952 209.412 149.808 209.053 149.593 208.695C148.375 209.913 147.156 211.131 145.938 212.349C145.938 212.349 145.938 212.349 146.009 212.349C145.723 212.062 145.364 211.704 145.078 211.418C145.078 211.418 145.078 211.418 145.078 211.489C145.006 211.274 144.862 211.059 144.791 210.845C144.862 211.131 145.006 211.418 145.078 211.633C145.293 211.991 145.651 212.349 146.009 212.564C146.368 212.779 146.654 212.851 147.013 212.922C147.443 212.994 147.3 212.994 147.801 212.922C148.231 212.851 148.088 212.922 148.518 212.707C148.948 212.492 149.307 212.277 149.593 211.848C149.737 211.704 149.88 211.489 149.952 211.274C150.023 211.131 150.095 211.059 150.095 210.916C150.238 210.558 150.238 210.2 150.167 209.842C150.167 209.483 150.023 209.125 149.88 208.839C149.522 208.265 148.948 207.764 148.303 207.621C147.586 207.477 146.869 207.477 146.224 207.907C145.651 208.265 145.078 208.839 145.006 209.483C145.651 208.839 146.224 208.265 146.869 207.621C147.085 207.621 147.371 207.549 147.586 207.549C147.586 207.549 147.586 207.549 147.515 207.549C147.945 207.692 148.446 207.764 148.876 207.907C148.876 207.907 148.876 207.907 148.805 207.907C149.092 208.194 149.45 208.552 149.737 208.839C149.808 209.054 149.952 209.268 150.023 209.483C149.952 209.197 149.88 208.982 149.737 208.695C149.45 208.194 149.163 207.979 148.733 207.692C148.518 207.621 148.303 207.477 148.088 207.406C147.73 207.262 147.371 207.262 147.013 207.334C146.439 207.406 145.866 207.621 145.436 208.051C145.149 208.409 144.862 208.767 144.719 209.268C144.504 209.985 144.647 210.701 145.006 211.346C145.006 211.418 145.078 211.418 145.078 211.489C145.006 211.274 144.862 211.059 144.791 210.845C144.791 210.916 144.862 211.06 144.862 211.131C146.583 210.63 148.303 210.2 150.023 209.698V209.627C150.023 209.842 150.095 210.128 150.095 210.343V210.271C148.303 210.486 146.583 210.773 144.791 210.988C144.791 211.06 144.862 211.131 144.862 211.203C144.862 210.988 144.791 210.701 144.791 210.486C144.791 210.558 144.791 210.63 144.791 210.701C146.439 210.271 148.16 209.77 149.808 209.34C149.737 209.125 149.665 208.982 149.522 208.767C149.378 208.48 149.092 208.194 148.805 207.979C148.518 207.764 148.231 207.549 147.873 207.477C147.3 207.334 146.726 207.406 146.153 207.621C145.651 207.836 145.149 208.194 144.862 208.695C144.791 208.91 144.647 209.125 144.576 209.34C144.432 209.842 144.432 210.271 144.576 210.773C144.576 210.845 144.576 210.916 144.576 210.916C144.576 210.701 144.504 210.415 144.504 210.2C144.504 210.486 144.576 210.773 144.504 211.06C146.153 210.63 147.873 210.128 149.522 209.698C149.45 209.555 149.378 209.483 149.307 209.34C149.378 209.555 149.522 209.77 149.593 209.985C149.522 209.842 149.522 209.77 149.522 209.627C149.45 209.268 149.307 208.982 149.02 208.695C148.805 208.409 148.59 208.194 148.231 207.979C148.016 207.907 147.801 207.764 147.586 207.692C147.228 207.549 146.869 207.549 146.511 207.621C145.938 207.692 145.364 207.907 144.934 208.337C144.791 208.552 144.647 208.695 144.504 208.91C144.289 209.34 144.146 209.77 144.146 210.271C144.146 210.558 144.146 210.845 144.217 211.06C144.289 211.274 144.432 211.561 144.504 211.776C144.862 212.349 145.436 212.851 146.081 212.994C146.726 213.137 147.586 213.065 148.16 212.707C148.733 212.349 149.235 211.776 149.378 211.131C149.808 210.63 149.808 209.842 149.378 209.268Z" fill="#415239"/>
<path d="M249.585 164.993C249.37 138.987 255.821 113.196 268.866 90.6997C279.045 73.1472 292.879 57.8157 308.935 45.4931C314.382 41.2662 320.117 37.4691 325.994 33.9587C328.933 32.1676 326.281 27.5825 323.271 29.3019C288.578 49.8633 261.125 82.4608 249.943 121.578C245.929 135.691 244.066 150.378 244.209 165.065C244.281 168.432 249.657 168.432 249.585 164.993Z" fill="#415239"/>
<path d="M198.478 215.215C200.27 190.426 220.698 170.151 245.499 168.504C248.94 168.289 248.94 162.916 245.499 163.131C217.616 164.922 195.037 187.346 193.102 215.215C192.887 218.654 198.263 218.654 198.478 215.215Z" fill="#415239"/>
<path d="M334.022 241.221C332.875 239.573 331.729 237.925 330.582 236.278C329.722 235.06 328.216 234.558 326.926 235.346C325.779 236.063 325.134 237.854 325.994 239C327.141 240.648 328.288 242.296 329.435 243.943C330.295 245.161 331.8 245.663 333.09 244.875C334.237 244.23 334.882 242.439 334.022 241.221Z" fill="#415239"/>
<path d="M321.98 224.242C319.83 221.233 317.68 218.224 315.529 215.286C314.669 214.14 313.236 213.567 311.874 214.355C310.727 215 310.082 216.863 310.942 218.009C313.092 221.018 315.243 223.955 317.393 226.964C319.328 229.687 323.987 227.036 321.98 224.242Z" fill="#415239"/>
<path d="M323.055 30.09C303.129 75.7264 283.274 121.363 263.347 166.999C261.985 170.151 266.644 172.874 268.006 169.722C287.933 124.085 307.788 78.4488 327.715 32.8124C329.076 29.6601 324.417 26.9377 323.055 30.09Z" fill="#415239"/>
<path d="M314.454 190.14C335.384 202.964 353.017 220.66 365.203 241.938C375.811 260.493 382.19 281.484 384.412 302.691C385.129 309.855 385.416 317.091 385.273 324.255C385.201 327.694 390.577 327.694 390.648 324.255C391.58 282.344 377.245 240.218 347.785 209.842C338.681 200.456 328.288 192.289 317.178 185.411C314.167 183.692 311.515 188.277 314.454 190.14Z" fill="#415239"/>
<path d="M352.229 268.015C346.279 259.275 340.33 250.606 334.452 241.794C332.517 238.928 327.858 241.651 329.793 244.517C335.671 253.257 341.62 261.997 347.57 270.738C349.505 273.604 354.164 270.881 352.229 268.015Z" fill="#415239"/>
<path d="M390.003 323.61C379.682 308.207 369.145 292.804 358.68 277.472C356.744 274.607 352.085 277.329 354.021 280.195C364.486 295.526 375.022 310.858 385.344 326.333C387.28 329.198 391.939 326.476 390.003 323.61Z" fill="#415239"/>
<path d="M234.461 192.504C242.704 196.086 247.865 204.11 247.578 213.137C247.435 216.576 252.81 216.576 252.954 213.137C253.312 202.391 247.076 192.146 237.185 187.847C234.031 186.486 231.307 191.143 234.461 192.504Z" fill="#415239"/>
<path d="M232.884 189.423C228.655 196.588 227.651 205.113 230.017 213.065C231.02 216.361 236.181 214.928 235.178 211.633C233.171 205.041 234.031 198.092 237.543 192.146C239.263 189.208 234.676 186.486 232.884 189.423Z" fill="#415239"/>
<path d="M330.152 235.705C327.858 232.409 325.564 229.185 323.199 225.961C321.192 223.167 316.533 225.89 318.54 228.684C320.905 231.908 323.199 235.203 325.493 238.427C327.5 241.221 332.159 238.57 330.152 235.705Z" fill="#415239"/>
<path d="M265.139 171.298C284.062 171.943 302.197 179.322 316.103 192.146C318.611 194.51 322.482 190.713 319.902 188.349C304.921 174.522 285.496 166.641 265.139 165.925C261.699 165.781 261.699 171.154 265.139 171.298Z" fill="#415239"/>
<path d="M117.696 102.664C115.546 101.303 113.324 100.228 111.46 98.3655C108.091 94.9983 107.303 90.1982 108.45 85.6847C109.955 79.3801 114.829 73.6487 120.062 70.2815C127.23 65.6247 138.053 61.2545 145.794 67.0576C150.095 70.2099 150.525 74.795 151.529 79.3801C152.245 82.7474 157.478 81.3145 156.689 77.9473C156.904 78.8786 156.546 76.8726 156.546 76.5144C156.403 75.5114 156.259 74.5084 155.973 73.5054C155.184 70.6397 153.894 67.9173 152.03 65.6247C146.511 58.8903 137.121 57.8873 129.165 60.1799C116.119 63.9053 101.855 75.7264 102.644 90.5564C103.146 98.9386 108.45 103.237 114.972 107.321C117.911 109.184 120.635 104.527 117.696 102.664Z" fill="#415239"/>
<path d="M322.482 82.5324C323.701 72.5024 332.804 65.1232 342.91 66.2695C355.598 67.7024 360.185 82.3175 354.021 92.3475C352.229 95.2848 356.888 98.0073 358.68 95.0699C366.564 82.1742 360.4 63.762 344.631 61.1829C330.725 58.8903 318.755 69.0636 317.106 82.6041C316.676 85.9713 322.052 85.9713 322.482 82.5324Z" fill="#415239"/>
<path d="M359.827 94.5684C370.292 85.8996 386.061 87.1176 394.662 97.9356C404.912 110.831 396.168 128.742 381.33 132.682C377.961 133.542 379.395 138.772 382.764 137.841C400.827 133.112 411.22 111.333 399.465 95.4281C389.072 81.3145 369.217 79.8816 356.028 90.7713C353.376 92.9923 357.175 96.7893 359.827 94.5684Z" fill="#415239"/>
<path d="M380.183 137.053C389.502 145.077 392.799 159.548 384.771 169.65C376.384 180.181 361.117 180.253 351.584 171.298C349.075 168.934 345.276 172.731 347.785 175.095C359.325 185.913 378.033 186.199 388.498 173.59C398.533 161.411 395.666 143.214 383.982 133.255C381.402 130.963 377.603 134.76 380.183 137.053Z" fill="#415239"/>
<path d="M344.201 117.064C351.87 112.622 362.049 115.99 363.841 125.16C365.561 133.685 357.605 140.563 349.362 139.059C345.993 138.414 344.559 143.572 347.928 144.217C359.683 146.438 371.152 137.196 369.217 124.73C367.21 111.619 352.444 106.031 341.477 112.407C338.466 114.199 341.19 118.784 344.201 117.064Z" fill="#415239"/>
</svg>
