<svg width="75" height="75" viewBox="0 0 75 75" fill="none" xmlns="http://www.w3.org/2000/svg">
<path d="M28.77 37.2188L28.5863 26.3175L24.57 24.285L22.9725 20.1038V16.3538L27.3713 13.44L30.9788 13.9013L33.1838 10.9913L36.6525 9.2925L40.455 9.99375L43.4925 13.44L45.6563 13.6725L48.9525 14.055L51.93 16.1213L52.365 20.1825L51 23.2575L46.3238 26.3175V37.5675L41.7338 39.1013H34.935L29.6738 38.2575L28.77 37.2188Z" fill="#FFCC2E"/>
<path d="M17.8238 7.305L27.9413 37.6913L31.9913 39.0975L38.8875 39.6375L45.9825 38.4563L48.9488 32.745L56.5388 12.8063L57.1875 7.68L59.3663 12.8175L59.7488 24.2025L57.225 31.29L51.9338 38.6813L49.875 40.3838L52.8863 43.8525C52.8863 43.8525 55.2375 48.9075 55.0838 49.1363C54.93 49.365 55.1588 52.6613 55.1588 52.6613L57.15 55.8787L57.7613 61.0875L55.7813 64.275L48.3413 67.5975L41.7338 68.1338H31.7175L25.3613 67.1363L18.7725 64.2713L17.1488 60.045L18.315 54.345L20.1525 52.0313L20.8425 46.6313L24.2888 41.3513L25.2863 40.3838L22.5413 37.7213L17.8238 31.6838L15.3263 24.3V17.5013L16.0913 10.0725L17.8238 7.305Z" fill="#FFCC2E"/>
<path d="M40.6987 52.035C39.8587 51.6 40.0312 48.9938 41.0812 47.1338C42.5812 44.475 46.005 43.0987 46.7475 43.8412C47.46 44.55 45.7762 47.2463 45.3675 47.9025C44.1037 49.9313 41.7037 52.5525 40.6987 52.035Z" fill="#FF681C"/>
<path d="M27.9113 26.0925C27.9113 27.42 27.9113 28.7512 27.9113 30.0787C27.9113 32.1937 27.9113 34.3087 27.9113 36.4237C27.9113 36.9037 27.9113 37.3875 27.9113 37.8675C27.9113 38.22 28.2225 38.5575 28.5863 38.5425C28.9538 38.5275 29.2613 38.2462 29.2613 37.8675C29.2613 36.54 29.2613 35.2087 29.2613 33.8812C29.2613 31.7662 29.2613 29.6512 29.2613 27.5362C29.2613 27.0562 29.2613 26.5725 29.2613 26.0925C29.2613 25.74 28.95 25.4025 28.5863 25.4175C28.2188 25.4325 27.9113 25.7137 27.9113 26.0925Z" fill="#FF681C"/>
<path d="M28.4063 38.52C30.7425 39.48 33.2438 40.0275 35.7675 40.1512C36.435 40.185 37.1063 40.185 37.7738 40.155C38.1263 40.14 38.4638 39.855 38.4488 39.48C38.4338 39.1275 38.1525 38.79 37.7738 38.805C36.54 38.8575 35.31 38.805 34.0838 38.6512C34.0725 38.6512 33.9525 38.6325 34.0463 38.6475C34.0088 38.6437 33.975 38.6362 33.9375 38.6325C33.8513 38.6212 33.7688 38.6062 33.6825 38.595C33.5063 38.5687 33.33 38.5388 33.1575 38.505C32.8313 38.445 32.5088 38.3813 32.1863 38.3063C31.5975 38.1713 31.0125 38.01 30.435 37.8263C29.8725 37.6463 29.3175 37.4438 28.77 37.2188C28.4438 37.0838 28.0125 37.365 27.9413 37.6912C27.8475 38.0812 28.0575 38.3737 28.4063 38.52Z" fill="#FF681C"/>
<path d="M28.7663 25.44C28.3388 25.35 27.9188 25.23 27.51 25.0725C27.4538 25.05 27.3563 25.0312 27.3075 24.99C27.4163 25.0762 27.3825 25.0237 27.3225 24.9937C27.2888 24.9787 27.2513 24.9637 27.2175 24.945C27.0713 24.8775 26.925 24.8062 26.7825 24.7275C26.6325 24.645 26.4825 24.5587 26.3363 24.465C26.2613 24.4162 26.1863 24.3675 26.1113 24.315C26.0813 24.2925 26.0513 24.2737 26.0213 24.2512C26.0063 24.24 25.845 24.12 25.9088 24.1725C25.9875 24.2325 25.8413 24.12 25.845 24.12C25.815 24.0975 25.785 24.0712 25.755 24.045C25.68 23.9812 25.6088 23.9175 25.5338 23.8537C25.3763 23.7112 25.2263 23.5575 25.0838 23.4C25.02 23.3287 24.96 23.2575 24.9 23.1862C24.87 23.1487 24.8288 23.1075 24.8025 23.0662C24.81 23.0812 24.8925 23.19 24.825 23.0925C24.7275 22.9575 24.63 22.8225 24.54 22.6837C24.36 22.4062 24.2025 22.1212 24.06 21.825C24.0263 21.7575 23.9963 21.6862 23.9663 21.6187C23.955 21.5925 23.8875 21.4312 23.955 21.5925C23.9438 21.5625 23.9288 21.5287 23.9175 21.4987C23.85 21.33 23.79 21.1612 23.7338 20.9925C23.625 20.6625 23.5388 20.325 23.4788 19.9837C23.4638 19.905 23.4525 19.83 23.4413 19.7512C23.4113 19.575 23.4563 19.9012 23.4375 19.725C23.4338 19.6912 23.43 19.6575 23.4263 19.62C23.4075 19.44 23.3963 19.2562 23.3888 19.0725C23.385 18.9075 23.3888 18.7425 23.3963 18.5775C23.4 18.4912 23.4075 18.405 23.415 18.3187C23.4188 18.2737 23.4263 18.2325 23.43 18.1875C23.4375 18.135 23.4338 18.1537 23.4225 18.2362C23.4263 18.2025 23.4338 18.1687 23.4375 18.1312C23.4938 17.7862 23.5838 17.445 23.7038 17.1187C23.715 17.085 23.73 17.0512 23.7413 17.0212C23.805 16.86 23.7 17.1075 23.745 17.01C23.7788 16.9387 23.8125 16.8637 23.8463 16.7925C23.9363 16.6125 24.0375 16.44 24.1463 16.275C24.1913 16.2037 24.24 16.1362 24.2888 16.0687C24.3113 16.0387 24.39 15.945 24.3038 16.05C24.3263 16.02 24.3525 15.99 24.375 15.9637C24.5025 15.8137 24.6375 15.6675 24.78 15.5325C24.8963 15.4237 25.0163 15.3187 25.14 15.2212C25.0125 15.3262 25.2225 15.1612 25.26 15.135C25.3463 15.075 25.4363 15.015 25.5263 14.9587C25.6613 14.8762 25.8 14.7975 25.9425 14.7225C26.0213 14.6812 26.1038 14.6437 26.1825 14.6062C26.1863 14.6062 26.3475 14.535 26.25 14.5762C26.1638 14.61 26.3513 14.5387 26.37 14.5312C26.7413 14.3925 27.1313 14.2875 27.5213 14.22C27.5738 14.2125 27.63 14.2012 27.6825 14.1937C27.5625 14.2125 27.6563 14.1975 27.7238 14.19C27.825 14.1787 27.9263 14.1712 28.0275 14.1637C28.2413 14.1525 28.4588 14.1487 28.6725 14.1562C28.8825 14.1637 29.0888 14.1825 29.295 14.2087C29.1525 14.19 29.2575 14.205 29.2875 14.2087C29.355 14.22 29.4188 14.2312 29.4863 14.2425C29.5913 14.2612 29.6963 14.2837 29.7975 14.3062C30.0075 14.355 30.2138 14.415 30.42 14.4825C30.5325 14.52 30.645 14.5612 30.7575 14.6025C30.795 14.6175 30.8325 14.6325 30.87 14.6475C30.7313 14.5912 30.9638 14.6887 30.9863 14.7C31.305 14.8462 31.7288 14.8012 31.9088 14.4562C32.0663 14.16 32.01 13.6875 31.665 13.5337C30.0675 12.8025 28.26 12.5812 26.5538 13.05C24.96 13.485 23.5125 14.535 22.7325 16.0087C21.9675 17.4675 21.8813 19.155 22.2525 20.73C22.6088 22.2225 23.3775 23.6737 24.495 24.735C25.5713 25.7587 26.955 26.445 28.4063 26.745C28.7513 26.8162 29.1525 26.6437 29.235 26.2725C29.3138 25.935 29.1338 25.5187 28.7663 25.44Z" fill="#FF681C"/>
<path d="M31.9762 14.31C32.0362 14.0625 32.1112 13.815 32.2012 13.575C32.2349 13.485 32.2762 13.3987 32.3062 13.3087C32.3062 13.3125 32.2349 13.4737 32.2799 13.3762C32.2912 13.3537 32.2987 13.335 32.3062 13.3125C32.3324 13.2525 32.3624 13.1925 32.3887 13.1325C32.4937 12.9113 32.6137 12.6937 32.7412 12.48C32.8087 12.3675 32.8837 12.2587 32.9587 12.15C33.0037 12.0862 33.0487 12.0262 33.0937 11.9662C33.1237 11.9287 33.1349 11.8762 33.0749 11.9925C33.0937 11.955 33.1387 11.9137 33.1649 11.8837C33.3637 11.64 33.5849 11.415 33.8174 11.2087C33.8774 11.1562 33.9374 11.1075 33.9974 11.0587C34.0274 11.0362 34.1249 10.9613 34.0049 11.0513C34.0349 11.0288 34.0612 11.01 34.0912 10.9875C34.2412 10.8787 34.3949 10.7775 34.5524 10.6837C34.9312 10.4587 35.1787 10.35 35.5649 10.2263C35.7749 10.1588 35.9887 10.1025 36.2024 10.0612C36.2962 10.0425 36.3937 10.0275 36.4874 10.0125C36.6674 9.9825 36.3899 10.02 36.4987 10.0125C36.5512 10.0087 36.6037 10.0013 36.6562 9.9975C36.9637 9.9675 37.2749 9.96375 37.5824 9.97875C37.9349 9.9975 38.2724 9.65625 38.2574 9.30375C38.2387 8.92125 37.9612 8.6475 37.5824 8.62875C35.9774 8.54625 34.4062 9.045 33.1387 10.0312C32.1487 10.8037 31.4437 11.8687 30.9712 13.0237C30.8474 13.3275 30.7424 13.6425 30.6674 13.9612C30.5849 14.3025 30.7762 14.7075 31.1399 14.79C31.4924 14.8612 31.8862 14.6775 31.9762 14.31Z" fill="#FF681C"/>
<path d="M17.1487 7.98C17.5012 7.98 17.8387 7.66875 17.8237 7.305C17.8087 6.9375 17.5275 6.63 17.1487 6.63C16.7962 6.63 16.4587 6.94125 16.4737 7.305C16.4887 7.6725 16.77 7.98 17.1487 7.98Z" fill="black"/>
<path d="M16.7213 6.8475C17.7525 10.8487 18.9225 14.8125 20.2275 18.735C21.6525 23.0137 23.2388 27.24 24.9825 31.3987C25.9425 33.69 26.9475 35.9625 28.0013 38.2087C28.1513 38.5312 28.6388 38.6362 28.9238 38.4525C29.2538 38.2387 29.325 37.8712 29.1675 37.53C28.2413 35.5537 27.3525 33.5587 26.5013 31.5487C26.3288 31.1437 26.0963 30.5887 25.8975 30.1012C25.6838 29.58 25.47 29.055 25.26 28.5338C24.8363 27.4763 24.42 26.415 24.0188 25.35C22.4738 21.2887 21.0825 17.175 19.8413 13.0163C19.1963 10.8525 18.5888 8.6775 18.0263 6.4875C17.9363 6.14625 17.5388 5.90625 17.1975 6.015C16.8413 6.13125 16.6275 6.48 16.7213 6.8475Z" fill="#FF681C"/>
<path d="M16.7212 6.4875C16.2637 7.6725 15.8775 8.8875 15.555 10.1175C14.9775 12.3075 14.5987 14.5575 14.4337 16.815C14.2275 19.6425 14.3812 22.4962 14.9475 25.275C15.5962 28.4587 16.8225 31.53 18.57 34.2712C20.0887 36.6562 21.9862 38.8012 24.15 40.62C24.3675 40.8 24.585 40.98 24.8062 41.1562C25.0837 41.3737 25.4962 41.445 25.7625 41.1562C25.9875 40.9125 26.0587 40.4362 25.7625 40.2C24.81 39.4462 23.9025 38.6325 23.0512 37.7625C22.5675 37.2675 22.1062 36.7575 21.6637 36.2287C21.5475 36.09 21.4312 35.9475 21.315 35.805C21.2625 35.7412 21.2137 35.6775 21.1612 35.61C21.135 35.5762 21.1087 35.5462 21.0862 35.5125C20.9887 35.3887 21.1237 35.565 21.0375 35.4525C20.805 35.1487 20.5762 34.8375 20.3587 34.5225C18.4987 31.86 17.2425 29.0587 16.4775 25.9275C16.3012 25.2112 16.1587 24.4875 16.0387 23.7562C16.0125 23.5837 15.9862 23.415 15.96 23.2425C15.9525 23.2012 15.9487 23.1637 15.945 23.1225C15.9637 23.2612 15.945 23.1262 15.9412 23.0925C15.93 22.9912 15.915 22.8937 15.9037 22.7925C15.8625 22.4475 15.8287 22.0987 15.7987 21.7537C15.6862 20.3962 15.6675 19.0312 15.7312 17.67C15.7612 17.0437 15.81 16.4212 15.8737 15.7987C15.9037 15.5062 15.9375 15.21 15.975 14.9175C15.9787 14.8762 15.9862 14.835 15.99 14.7937C16.0012 14.6962 15.9712 14.9212 15.9862 14.8275C15.9975 14.7562 16.005 14.6812 16.0162 14.61C16.035 14.4675 16.0575 14.3212 16.08 14.1787C16.2412 13.1362 16.4475 12.105 16.6987 11.0812C17.0287 9.73125 17.4337 8.39625 17.925 7.09125C17.955 7.00875 17.9887 6.93 18.0187 6.8475C18.1462 6.5175 17.88 6.09375 17.5462 6.01875C17.1675 5.92875 16.86 6.135 16.7212 6.4875Z" fill="#FF681C"/>
<path d="M24.81 40.2038C23.5387 41.2163 22.44 42.4425 21.5512 43.8038C20.3175 45.7013 19.5525 47.865 19.2562 50.1038C19.1475 50.9213 19.1062 51.7425 19.1362 52.5675C19.1475 52.92 19.4362 53.2575 19.8112 53.2425C20.1675 53.2275 20.5012 52.9463 20.4862 52.5675C20.46 51.8775 20.4862 51.1838 20.5575 50.4975C20.5687 50.3925 20.58 50.2913 20.595 50.1863C20.6175 50.0063 20.5725 50.3325 20.5987 50.1525C20.6062 50.0963 20.6137 50.0438 20.625 49.9875C20.6625 49.74 20.7075 49.4925 20.76 49.2488C20.865 48.75 20.9925 48.2588 21.1462 47.7788C21.4875 46.71 21.9225 45.7688 22.5337 44.775C22.785 44.37 23.055 43.9763 23.3437 43.5975C23.4562 43.4475 23.2575 43.7025 23.3737 43.5563C23.4075 43.515 23.4412 43.47 23.475 43.4288C23.5425 43.3463 23.61 43.2638 23.6812 43.1813C23.8237 43.0125 23.97 42.8475 24.12 42.6825C24.6262 42.135 25.1737 41.625 25.7587 41.1637C26.0362 40.9425 26.0062 40.4362 25.7587 40.2075C25.47 39.9337 25.1062 39.9675 24.81 40.2038Z" fill="#FF681C"/>
<path d="M34.2938 59.5575C34.3613 59.5875 34.3575 59.5838 34.275 59.55C34.3088 59.565 34.3388 59.58 34.3725 59.5913C34.4213 59.6138 34.4738 59.6363 34.5225 59.6588C34.6463 59.715 34.7663 59.775 34.89 59.8388C35.1675 59.9813 35.4375 60.1388 35.7 60.3075C35.97 60.4838 36.2363 60.675 36.42 60.825C36.66 61.02 36.8888 61.2263 37.1063 61.4438C37.3575 61.6913 37.8113 61.7138 38.0625 61.4438C38.31 61.1775 38.3325 60.7538 38.0625 60.4875C37.08 59.52 35.925 58.7813 34.6538 58.2525C34.3275 58.1175 33.8963 58.3988 33.825 58.725C33.735 59.1188 33.945 59.4113 34.2938 59.5575Z" fill="#FF681C"/>
<path d="M37.245 60.3863C37.215 60.4013 37.14 60.4313 37.2675 60.3788C37.4137 60.3188 37.2637 60.3788 37.23 60.39C37.11 60.435 36.9862 60.465 36.8587 60.4913C36.8362 60.495 36.705 60.5213 36.8137 60.5025C36.9225 60.4838 36.7837 60.5063 36.7575 60.5063C36.66 60.5138 36.5662 60.5138 36.4687 60.51C36.4237 60.5063 36.375 60.5025 36.33 60.4988C36.4275 60.51 36.375 60.5025 36.3075 60.4913C36.1987 60.4688 36.0862 60.435 35.985 60.3938C36.075 60.4313 35.97 60.3825 35.9362 60.3638C35.8837 60.3375 35.835 60.3075 35.7862 60.2775C35.7862 60.2775 35.6437 60.18 35.715 60.2325C35.7862 60.285 35.6662 60.1913 35.655 60.18C35.58 60.1125 35.5125 60.0338 35.4412 59.9588C35.3887 59.9025 35.4975 60.045 35.43 59.94C35.4037 59.9025 35.3775 59.865 35.355 59.8238C35.3325 59.7825 35.31 59.745 35.2875 59.7038C35.2762 59.6775 35.2125 59.5163 35.265 59.6625C35.235 59.5763 35.2012 59.49 35.1787 59.4C35.1637 59.3475 35.1562 59.2913 35.145 59.235C35.16 59.2913 35.1525 59.325 35.1487 59.2463C35.1412 59.1338 35.1375 59.0213 35.145 58.9088C35.1637 58.5563 34.8225 58.2188 34.47 58.2338C34.0875 58.2525 33.8137 58.53 33.795 58.9088C33.735 60.0225 34.38 61.14 35.4037 61.6013C36.1987 61.9613 37.14 61.9425 37.9237 61.5525C38.2425 61.395 38.355 60.9225 38.1675 60.63C37.9612 60.3038 37.5862 60.2175 37.245 60.3863Z" fill="#FF681C"/>
<path d="M37.9275 60.3862C37.3613 60.0262 36.8475 60.6262 36.4875 60.9862C36.24 61.2337 35.9925 61.4775 35.7338 61.71C35.5688 61.86 35.4 62.0062 35.2313 62.1487C35.145 62.22 35.0588 62.2912 34.9725 62.3587C34.9763 62.355 34.8 62.4937 34.89 62.4262C34.8338 62.4712 34.7738 62.5125 34.7175 62.5575C34.5225 62.7037 34.2938 62.8387 34.1288 63.0225C33.8588 63.3225 33.8363 63.75 34.1213 64.05C34.4063 64.35 34.8825 64.2825 35.2388 64.2C36.09 64.0087 36.915 63.5175 37.4663 62.8387C37.77 62.4637 38.0175 62.0662 38.1863 61.6087C38.3175 61.2525 38.3738 60.7762 38.0625 60.4912C37.8038 60.2512 37.3613 60.2137 37.1063 60.4912C36.8663 60.75 36.8288 61.1925 37.1063 61.4475C37.0688 61.4137 36.96 61.2 36.96 61.2C36.9075 60.9937 36.945 61.02 36.9413 61.0912C36.9338 61.185 36.9863 60.9 36.9525 61.005C36.945 61.0312 36.9413 61.0612 36.9338 61.0875C36.9188 61.1475 36.8963 61.2075 36.8738 61.2637C36.825 61.4062 36.915 61.185 36.8813 61.2487C36.8663 61.2787 36.8513 61.3125 36.8363 61.3462C36.75 61.5225 36.645 61.6837 36.5325 61.845C36.4538 61.9612 36.6075 61.7587 36.5063 61.8787C36.4763 61.9125 36.4463 61.95 36.4163 61.9837C36.3413 62.07 36.2625 62.1525 36.18 62.2275C36.1463 62.2612 36.105 62.2912 36.0713 62.325C35.9625 62.4262 36.135 62.2875 36.0188 62.3662C35.9213 62.4337 35.82 62.5012 35.715 62.5612C35.6138 62.6175 35.5125 62.6662 35.4075 62.7187C35.2913 62.775 35.4675 62.7 35.3925 62.7262C35.3438 62.745 35.295 62.7637 35.2463 62.7825C35.085 62.8387 34.9238 62.88 34.7588 62.9137C34.6275 62.9437 34.9238 62.9062 34.8075 62.9062C34.7813 62.9062 34.7513 62.9062 34.725 62.91C34.6913 62.9137 34.6088 62.8987 34.7513 62.9175C34.8263 62.9287 34.845 62.9325 34.8075 62.925C34.6463 62.8762 34.7625 62.97 35.1638 63.2062C35.1938 63.3187 35.2238 63.435 35.2575 63.5475C35.2875 63.7762 34.98 64.0575 35.1713 63.8775C35.0813 63.9637 35.1863 63.8662 35.2238 63.8362C35.3213 63.765 35.415 63.6937 35.5125 63.6225C35.7413 63.45 35.9663 63.2737 36.1838 63.09C36.5063 62.82 36.8175 62.5387 37.1213 62.2462C37.32 62.055 37.5113 61.8525 37.71 61.6612C37.7438 61.6275 37.7775 61.5975 37.8113 61.5637C37.8375 61.5375 37.9538 61.4475 37.8338 61.5412C37.7213 61.6275 37.8075 61.5637 37.8375 61.545C37.6463 61.6387 37.4363 61.665 37.2375 61.5412C37.5375 61.7325 37.995 61.6125 38.16 61.2975C38.3438 60.975 38.2463 60.5887 37.9275 60.3862Z" fill="#FF681C"/>
<path d="M32.3175 23.2838C32.8012 24.0413 33.4237 24.6937 34.1587 25.2112C35.1787 25.9275 36.4237 26.2987 37.665 26.3175C38.0175 26.3212 38.355 26.0025 38.34 25.6425C38.325 25.2712 38.0437 24.975 37.665 24.9675C37.5562 24.9675 37.4512 24.9637 37.3425 24.9562C37.275 24.9525 37.2075 24.945 37.1362 24.9375C37.0987 24.9337 36.9337 24.9113 37.0987 24.9338C36.81 24.8925 36.525 24.8287 36.2475 24.7425C36.1012 24.6975 35.9587 24.6413 35.8162 24.5888C35.7675 24.57 35.7712 24.57 35.8237 24.5925C35.7862 24.5775 35.745 24.5588 35.7075 24.54C35.6512 24.5138 35.595 24.4875 35.5387 24.4575C35.295 24.3338 35.0625 24.195 34.8375 24.0375C34.7925 24.0075 34.7475 23.9738 34.7025 23.94C34.6425 23.895 34.6462 23.895 34.71 23.9475C34.6837 23.925 34.6537 23.9025 34.6275 23.88C34.5412 23.8087 34.4587 23.7375 34.38 23.6625C34.23 23.5237 34.0837 23.3738 33.9487 23.22C33.885 23.1488 33.825 23.0775 33.7687 23.0025C33.7537 22.9838 33.7387 22.965 33.7237 22.9425C33.7875 23.025 33.8062 23.0475 33.7725 23.0062C33.75 22.9725 33.7237 22.9425 33.7012 22.9088C33.6262 22.8038 33.5512 22.695 33.48 22.5862C33.2887 22.29 32.8725 22.14 32.5575 22.3425C32.2612 22.5525 32.1112 22.965 32.3175 23.2838Z" fill="#FF681C"/>
<path d="M45.6487 26.0925C45.6487 27.4162 45.6487 28.74 45.6487 30.0637C45.6487 32.175 45.6487 34.29 45.6487 36.4012C45.6487 36.8887 45.6487 37.3762 45.6487 37.8637C45.6487 38.2162 45.96 38.5537 46.3237 38.5387C46.6912 38.5237 46.9987 38.2425 46.9987 37.8637C46.9987 36.54 46.9987 35.2162 46.9987 33.8925C46.9987 31.7812 46.9987 29.6662 46.9987 27.555C46.9987 27.0675 46.9987 26.58 46.9987 26.0925C46.9987 25.74 46.6875 25.4025 46.3237 25.4175C45.9562 25.4325 45.6487 25.7137 45.6487 26.0925Z" fill="#FF681C"/>
<path d="M46.1438 37.215C45.1163 37.635 44.0625 37.98 42.9825 38.2425C41.64 38.5688 40.4738 38.7337 39.1088 38.8012C38.4525 38.8312 37.7925 38.8313 37.1363 38.805C36.7838 38.79 36.4463 39.1275 36.4613 39.48C36.48 39.8588 36.7575 40.14 37.1363 40.155C39.7238 40.2638 42.3413 39.9225 44.8088 39.135C45.3825 38.9512 45.945 38.745 46.5038 38.5162C46.83 38.3812 47.0963 38.0625 46.9763 37.6875C46.875 37.3763 46.4925 37.0725 46.1438 37.215Z" fill="#FF681C"/>
<path d="M46.5037 26.745C47.7637 26.4825 48.945 25.9313 49.9537 25.1325C51.195 24.1538 52.0575 22.7287 52.5225 21.2287C52.98 19.7475 53.0475 18.0713 52.455 16.6163C51.8025 15.015 50.5087 13.8413 48.9037 13.2338C47.07 12.5438 45.0112 12.7388 43.2525 13.545C42.93 13.6913 42.825 14.1825 43.0087 14.4675C43.2225 14.8012 43.5862 14.8687 43.9312 14.7112C43.9875 14.685 44.04 14.6625 44.0962 14.6362C44.07 14.6475 43.98 14.6812 44.1 14.6362C44.1937 14.5987 44.2837 14.565 44.3775 14.5313C44.5612 14.4675 44.7525 14.4075 44.94 14.3588C45.1275 14.31 45.315 14.2688 45.5062 14.235C45.5437 14.2275 45.5812 14.2238 45.6187 14.2163C45.8062 14.1825 45.4762 14.2313 45.6675 14.2088C45.7612 14.1975 45.855 14.1863 45.9525 14.1788C46.3237 14.1488 46.7025 14.1525 47.0737 14.1862C47.1187 14.19 47.3925 14.2275 47.2237 14.2013C47.3137 14.2163 47.4037 14.2275 47.4937 14.2463C47.6812 14.28 47.8687 14.325 48.0525 14.3775C48.2175 14.4225 48.3787 14.4788 48.54 14.5388C48.5812 14.5538 48.6225 14.5725 48.6637 14.5875C48.765 14.625 48.5175 14.52 48.675 14.5913C48.765 14.6325 48.855 14.6738 48.9412 14.715C49.0912 14.79 49.2375 14.8725 49.3837 14.9625C49.4587 15.0075 49.5337 15.0563 49.605 15.1088C49.635 15.1275 49.6612 15.15 49.6912 15.1688C49.7062 15.18 49.8637 15.3 49.7925 15.2438C49.71 15.18 49.845 15.2888 49.8487 15.2888C49.875 15.3113 49.9012 15.3338 49.9312 15.3563C49.9987 15.4125 50.0625 15.4725 50.1262 15.5325C50.2612 15.6638 50.3925 15.7988 50.5125 15.9413C50.5425 15.9788 50.5725 16.0163 50.6025 16.05C50.52 15.9525 50.5837 16.0238 50.5987 16.0463C50.655 16.1213 50.7075 16.1963 50.76 16.275C50.865 16.4325 50.9625 16.5975 51.0487 16.7663C51.0862 16.8375 51.12 16.9125 51.1537 16.9838C51.2325 17.145 51.105 16.8525 51.1687 17.0175C51.18 17.0512 51.195 17.085 51.2062 17.115C51.27 17.2875 51.3262 17.4637 51.3712 17.64C51.4125 17.8012 51.4462 17.9625 51.4725 18.1275C51.4725 18.135 51.4987 18.3038 51.4837 18.1913C51.4687 18.0788 51.4912 18.2512 51.4912 18.2587C51.5025 18.3525 51.51 18.45 51.5137 18.5438C51.5362 18.9 51.525 19.2562 51.4875 19.6125C51.4837 19.6462 51.48 19.68 51.4762 19.7175C51.495 19.6125 51.4575 19.89 51.4762 19.7175C51.465 19.7962 51.4537 19.8712 51.4387 19.95C51.405 20.1375 51.3637 20.325 51.315 20.5088C51.2287 20.8425 51.12 21.1687 50.9925 21.4875C50.9812 21.5175 50.9662 21.5512 50.955 21.5812C51.015 21.435 50.97 21.5475 50.9512 21.585C50.9212 21.6525 50.8875 21.7237 50.8575 21.7912C50.7787 21.9562 50.6962 22.1175 50.6062 22.2787C50.4487 22.5562 50.2725 22.8225 50.085 23.0812C50.0625 23.115 50.025 23.1862 50.1075 23.055C50.085 23.0887 50.055 23.1188 50.0287 23.1525C49.9687 23.2275 49.9087 23.2988 49.845 23.37C49.695 23.535 49.5412 23.6963 49.3762 23.8463C49.305 23.9138 49.23 23.9775 49.155 24.0375C49.11 24.075 49.065 24.1088 49.02 24.1463C48.9075 24.2363 49.1025 24.0863 48.9787 24.1763C48.8175 24.2925 48.6562 24.405 48.4837 24.51C48.3187 24.6112 48.1462 24.7088 47.9737 24.795C47.895 24.8363 47.8162 24.8737 47.7375 24.9112C47.7037 24.9262 47.6662 24.945 47.6325 24.96C47.61 24.9712 47.5912 24.9787 47.5687 24.9862C47.5012 25.0162 47.5125 25.0088 47.6062 24.9713C47.5012 25.0538 47.2987 25.095 47.1712 25.1362C47.04 25.1812 46.9125 25.2225 46.7775 25.2638C46.5675 25.3238 46.3575 25.3763 46.1437 25.4213C45.7987 25.4925 45.5662 25.92 45.6712 26.25C45.7912 26.64 46.1325 26.82 46.5037 26.745Z" fill="#FF681C"/>
<path d="M44.2387 13.95C43.6837 11.655 42.0037 9.6675 39.7387 8.92875C38.9662 8.6775 38.1337 8.57625 37.3275 8.6175C36.975 8.63625 36.6337 8.91375 36.6525 9.2925C36.6675 9.64125 36.9487 9.98625 37.3275 9.9675C37.5937 9.9525 37.86 9.95625 38.1262 9.975C38.205 9.9825 38.28 9.98625 38.3587 9.9975C38.3962 10.0012 38.5237 10.02 38.37 9.9975C38.4075 10.0012 38.445 10.0087 38.4825 10.0162C38.6812 10.05 38.8762 10.0912 39.0712 10.14C39.2625 10.1925 39.45 10.2525 39.6375 10.3237C39.6825 10.3387 39.7237 10.3575 39.765 10.3762C39.6787 10.3425 39.7875 10.3875 39.7987 10.3912C39.915 10.4437 40.0275 10.5 40.14 10.5562C40.29 10.635 40.4362 10.7212 40.5787 10.815C40.6462 10.86 40.7137 10.905 40.7812 10.9537C40.8112 10.9762 40.8375 10.995 40.8675 11.0175C40.995 11.1075 40.7925 10.95 40.8975 11.0437C41.145 11.25 41.3775 11.4675 41.595 11.7075C41.6475 11.7675 41.7 11.8275 41.7525 11.8912C41.7937 11.9437 41.8912 12.0487 41.7937 11.94C41.8912 12.0487 41.9737 12.1838 42.0562 12.3075C42.2025 12.525 42.3337 12.7537 42.45 12.9862C42.4987 13.0875 42.5475 13.185 42.5962 13.2862C42.6112 13.3162 42.6262 13.395 42.6525 13.4138C42.6 13.3763 42.5925 13.2637 42.63 13.3612C42.6412 13.3912 42.6525 13.4213 42.6675 13.4513C42.78 13.7325 42.8737 14.0213 42.9412 14.3138C43.0237 14.6588 43.4325 14.895 43.77 14.7862C44.1225 14.6662 44.325 14.3175 44.2387 13.95Z" fill="#FF681C"/>
<path d="M56.8837 6.4875C55.8562 10.4663 54.6937 14.4113 53.3962 18.3075C51.9825 22.5638 50.4075 26.7638 48.675 30.9038C48.24 31.9463 47.7337 33.12 47.2387 34.2338C46.7475 35.3363 46.2487 36.435 45.7387 37.53C45.5887 37.8488 45.6375 38.2725 45.9825 38.4525C46.2825 38.61 46.7475 38.55 46.905 38.2088C48.8137 34.1288 50.5687 29.9813 52.17 25.7738C53.7187 21.6938 55.1212 17.5575 56.37 13.3763C57.015 11.2125 57.6225 9.0375 58.185 6.8475C58.275 6.50625 58.0725 6.0975 57.7125 6.01875C57.3637 5.93625 56.9812 6.12375 56.8837 6.4875Z" fill="#FF681C"/>
<path d="M56.8838 6.8475C57.3338 8.0175 57.7163 9.21 58.0388 10.4212C58.2975 11.3925 58.515 12.375 58.6913 13.365C58.74 13.635 58.785 13.9087 58.8263 14.1787C58.8488 14.3212 58.8713 14.4675 58.89 14.61C58.8975 14.6737 58.9088 14.7412 58.9163 14.805C58.935 14.9287 58.9163 14.79 58.9125 14.7712C58.92 14.82 58.9238 14.8687 58.9313 14.9175C59.01 15.5287 59.0738 16.1437 59.1188 16.7587C59.2163 18.0712 59.2388 19.3875 59.175 20.7C59.1413 21.4087 59.0813 22.1175 58.9988 22.8225C58.9875 22.9012 58.98 22.9837 58.9688 23.0625C58.9688 23.0587 58.9425 23.2537 58.9575 23.1525C58.9688 23.0662 58.95 23.1937 58.95 23.2125C58.9238 23.4037 58.8938 23.595 58.8638 23.7862C58.8038 24.1537 58.74 24.5175 58.665 24.8812C58.3613 26.3812 57.93 27.855 57.375 29.28C56.835 30.6637 56.055 32.2012 55.1925 33.5587C54.78 34.2075 54.3375 34.8375 53.8725 35.4487C53.7525 35.61 53.9175 35.3925 53.8425 35.4862C53.8163 35.52 53.79 35.55 53.7675 35.5837C53.7113 35.655 53.6513 35.73 53.595 35.8012C53.4788 35.9437 53.3625 36.0862 53.2463 36.225C53.0175 36.4987 52.7813 36.765 52.545 37.0312C51.6863 37.9762 50.7638 38.8575 49.7888 39.6787C49.5788 39.855 49.365 40.0275 49.1513 40.2C48.8738 40.4212 48.9038 40.9275 49.1513 41.1562C49.4475 41.4262 49.8075 41.3925 50.1075 41.1562C52.2488 39.4612 54.1388 37.47 55.7063 35.2312C57.5813 32.5537 58.9463 29.52 59.7263 26.3512C60.4163 23.5462 60.6675 20.6362 60.5363 17.7525C60.4313 15.405 60.0825 13.0612 59.5275 10.7775C59.1938 9.40875 58.785 8.055 58.29 6.73875C58.26 6.65625 58.2263 6.57 58.1925 6.4875C58.065 6.1575 57.7313 5.895 57.3638 6.015C57.0375 6.12 56.7488 6.495 56.8838 6.8475Z" fill="#FF681C"/>
<path d="M49.1475 41.1562C49.6575 41.5612 50.1375 41.9963 50.5875 42.465C50.8838 42.7725 51.165 43.0913 51.4313 43.4213C51.465 43.4625 51.4988 43.5075 51.5325 43.5488C51.6488 43.695 51.45 43.44 51.5625 43.59C51.6188 43.665 51.6788 43.7437 51.735 43.8187C51.8888 44.025 52.035 44.2387 52.1738 44.4562C52.4663 44.9062 52.7363 45.3712 52.9763 45.8512C53.2575 46.41 53.43 46.8112 53.6325 47.3887C53.805 47.88 53.9513 48.3825 54.0713 48.8887C54.1275 49.1212 54.1763 49.3575 54.2175 49.59C54.2363 49.7025 54.2588 49.815 54.2738 49.9275C54.2813 49.9838 54.2925 50.0363 54.3 50.0925C54.3038 50.13 54.3113 50.1637 54.315 50.2012C54.3038 50.1112 54.3038 50.1037 54.3113 50.1825C54.4088 50.9737 54.45 51.7688 54.42 52.5675C54.4088 52.92 54.7388 53.2575 55.095 53.2425C55.47 53.2275 55.755 52.9463 55.77 52.5675C55.8338 50.82 55.59 49.0462 55.05 47.385C54.3788 45.3037 53.2575 43.3875 51.7838 41.7787C51.2625 41.2087 50.7 40.6837 50.0963 40.2037C49.8188 39.9862 49.4063 39.915 49.14 40.2037C48.9225 40.4475 48.8513 40.9237 49.1475 41.1562Z" fill="#FF681C"/>
<path d="M54.6974 53.1525C54.7799 53.2388 54.8624 53.3288 54.9374 53.4225C54.9824 53.475 55.0312 53.5313 55.0762 53.5838C55.1024 53.6138 55.1249 53.6438 55.1512 53.6738C55.2262 53.7675 55.0612 53.5538 55.1587 53.6775C55.4024 53.9925 55.6312 54.3263 55.8374 54.675C55.9574 54.8738 56.0662 55.0763 56.1749 55.2825C56.2312 55.395 56.2874 55.5038 56.3362 55.6163C56.3587 55.6613 56.4262 55.8188 56.3662 55.6838C56.3962 55.7513 56.4224 55.8188 56.4524 55.89C56.6737 56.43 56.8537 57 56.9812 57.5888C56.9999 57.6675 57.0112 57.7425 57.0262 57.8213C57.0449 57.9225 57.0112 57.7163 57.0262 57.8213C57.0337 57.8625 57.0412 57.9 57.0487 57.9375C57.0787 58.1063 57.1012 58.2788 57.1237 58.455C57.1649 58.815 57.1874 59.175 57.2024 59.5425C57.2062 59.7 57.2099 59.8613 57.2099 60.0188C57.2099 60.09 57.2062 60.165 57.2062 60.2325C57.2062 60.2625 57.2099 60.3038 57.2024 60.3338C57.2287 60.15 57.2062 60.2963 57.2024 60.3413C57.1912 60.5513 57.1724 60.7613 57.1424 60.9713C57.1199 61.1138 57.0899 61.2488 57.0637 61.3913C57.1124 61.1625 57.0974 61.2675 57.0674 61.3688C57.0149 61.5338 56.9512 61.6913 56.8799 61.8525C56.8462 61.9238 56.8124 61.995 56.7787 62.0663C56.8424 61.935 56.7449 62.1263 56.7224 62.16C56.6437 62.2988 56.5574 62.43 56.4637 62.5575C56.3849 62.6663 56.2987 62.7713 56.2162 62.8763C56.1374 62.97 56.2049 62.8875 56.2199 62.8688C56.1974 62.895 56.1749 62.9213 56.1487 62.9475C56.0887 63.015 56.0287 63.075 55.9687 63.135C55.7737 63.3263 55.5712 63.5025 55.3612 63.6675C55.2599 63.7463 55.1549 63.825 55.0499 63.9C54.9974 63.9338 54.9487 63.9713 54.8924 64.0088C55.0237 63.915 54.8399 64.0425 54.8137 64.0613C54.2737 64.4213 53.7187 64.7475 53.1562 65.0438C52.6124 65.325 52.0612 65.58 51.5024 65.8088C51.2212 65.9213 50.9399 66.0338 50.6512 66.135C50.5274 66.18 50.4074 66.2213 50.2837 66.2625C50.3699 66.2325 50.1974 66.2925 50.2837 66.2625C50.2499 66.2738 50.2199 66.285 50.1862 66.2963C50.1149 66.3225 50.0399 66.345 49.9687 66.3637C48.3449 66.8737 46.6949 67.2 45.0374 67.3875C44.0474 67.5 43.0574 67.575 42.0637 67.6125C41.7787 67.6238 41.4899 67.6313 41.2012 67.635C41.1637 67.6388 41.1299 67.635 41.0924 67.6387C40.9987 67.6387 41.1787 67.6387 41.0849 67.6387C41.0099 67.6387 40.9387 67.6388 40.8637 67.6425C40.7062 67.6425 40.5487 67.6425 40.3912 67.6425C39.7462 67.6388 39.0974 67.6162 38.4524 67.5825C38.1224 67.5637 37.7887 67.5413 37.4587 67.515C37.1587 67.4888 36.8287 67.7288 36.7837 68.1188C36.7424 68.4788 36.9262 68.8687 37.2487 68.895C39.6712 69.09 42.1162 69.075 44.5574 68.8313C46.2337 68.6663 47.9099 68.3812 49.5599 67.9012C50.7262 67.56 51.8849 67.14 53.0062 66.5963C54.1199 66.06 55.2449 65.4225 56.2387 64.5825C57.1199 63.8325 57.9074 62.79 58.2037 61.5338C58.2937 61.155 58.3274 60.7688 58.3424 60.3825C58.3762 59.6288 58.3499 58.875 58.2562 58.14C57.9674 55.8788 57.0337 53.88 55.7024 52.3313C55.6199 52.2375 55.5374 52.14 55.4549 52.05C55.2337 51.8138 54.8249 51.885 54.6412 52.1813C54.4312 52.5 54.4612 52.9013 54.6974 53.1525Z" fill="#FF681C"/>
<path d="M40.2563 58.2525C38.985 58.7813 37.83 59.52 36.8475 60.4875C36.5963 60.735 36.5813 61.1963 36.8475 61.4438C37.1175 61.6913 37.5338 61.71 37.8038 61.4438C38.2838 60.9713 38.6738 60.6563 39.2138 60.3075C39.4688 60.1425 39.7275 59.9925 39.9975 59.8538C40.1175 59.79 40.2413 59.73 40.365 59.6738C40.425 59.6475 40.4813 59.6213 40.5413 59.595C40.575 59.58 40.605 59.565 40.6388 59.5538C40.5563 59.5875 40.5525 59.5913 40.62 59.5613C40.9463 59.4263 41.2125 59.1075 41.0925 58.7325C40.9875 58.4138 40.605 58.11 40.2563 58.2525Z" fill="#FF681C"/>
<path d="M36.9825 61.5488C37.7663 61.9388 38.7075 61.9575 39.5025 61.5975C40.5263 61.1363 41.1713 60.0188 41.1113 58.905C41.0925 58.5525 40.815 58.2113 40.4363 58.23C40.0875 58.245 39.7425 58.5263 39.7613 58.905C39.765 59.01 39.7688 59.1113 39.7575 59.2163C39.7538 59.2575 39.7238 59.3738 39.7575 59.2313C39.7463 59.2763 39.7388 59.3213 39.7313 59.3663C39.7088 59.4638 39.675 59.5613 39.6413 59.655C39.675 59.5688 39.66 59.61 39.63 59.67C39.6113 59.7113 39.5888 59.7525 39.5663 59.79C39.5438 59.8313 39.5175 59.8688 39.4913 59.9063C39.4538 59.9588 39.4238 59.9963 39.4838 59.925C39.4163 60.0038 39.3488 60.0788 39.2738 60.1463C39.24 60.1763 39.2025 60.21 39.1688 60.2363C39.2438 60.1763 39.195 60.2138 39.1463 60.2475C39.1013 60.2775 39.0525 60.3075 39.0038 60.3338C39 60.3375 38.8088 60.4313 38.925 60.3788C38.8313 60.42 38.73 60.4463 38.6288 60.4688C38.6288 60.4688 38.4488 60.5025 38.5463 60.4875C38.64 60.4725 38.4863 60.4913 38.4675 60.495C38.37 60.5025 38.2725 60.4988 38.1788 60.495C38.1488 60.4913 38.085 60.4988 38.055 60.4838C38.1488 60.5363 38.1525 60.4988 38.0738 60.4838C37.9463 60.4575 37.8188 60.4275 37.695 60.3825C37.6575 60.3675 37.62 60.3525 37.5788 60.3375C37.8075 60.4125 37.7213 60.4013 37.665 60.3713C37.35 60.2138 36.9188 60.2775 36.7425 60.615C36.5813 60.93 36.645 61.3838 36.9825 61.5488Z" fill="#FF681C"/>
<path d="M37.6649 61.5488C37.6874 61.5338 37.3312 61.6313 37.3574 61.6313C37.2374 61.6313 37.1699 61.605 37.0649 61.5525C37.0874 61.5638 37.1062 61.575 37.1249 61.59C36.8812 61.425 37.1212 61.5975 37.1849 61.6575C37.3874 61.8525 37.5824 62.055 37.7849 62.25C38.0774 62.535 38.3812 62.8125 38.6962 63.075C38.9137 63.2588 39.1387 63.4313 39.3637 63.6038C39.4687 63.6825 39.5737 63.7613 39.6787 63.84C39.7012 63.855 39.8362 63.9863 39.7312 63.8813C39.9187 64.0688 39.6187 63.7613 39.6449 63.5513C39.6749 63.4388 39.7049 63.3225 39.7387 63.21C39.8999 62.9625 40.2712 62.8838 40.0799 62.9325C40.3124 62.8725 40.2412 62.9213 40.1774 62.9138C40.1512 62.91 40.1212 62.91 40.0949 62.91C39.9824 62.9063 40.2712 62.9438 40.1437 62.9175C39.9862 62.8838 39.8324 62.8463 39.6787 62.7938C39.6299 62.7788 39.5812 62.76 39.5324 62.7413C39.3674 62.6775 39.6599 62.805 39.4949 62.7263C39.3899 62.6775 39.2887 62.625 39.1874 62.5688C39.0937 62.5125 38.9999 62.4563 38.9099 62.3925C38.8837 62.3738 38.8612 62.3588 38.8349 62.34C38.8837 62.3775 38.8912 62.3813 38.8537 62.3513C38.8124 62.31 38.7637 62.2763 38.7224 62.235C38.6474 62.1638 38.5724 62.0888 38.5012 62.01C38.4637 61.9688 38.4299 61.9275 38.3924 61.8825C38.2762 61.7438 38.4674 61.995 38.3662 61.8488C38.2612 61.695 38.1599 61.5375 38.0737 61.3688C38.0587 61.335 38.0437 61.305 38.0249 61.2713C37.9612 61.1438 38.0699 61.4025 38.0287 61.2863C38.0062 61.2225 37.9799 61.1588 37.9649 61.0913C37.9574 61.065 37.9537 61.035 37.9462 61.0088C37.9162 60.9075 37.9574 61.1963 37.9574 61.095C37.9574 61.0613 37.9649 60.9938 37.9462 61.1288C37.9312 61.23 37.8937 61.3538 37.7887 61.4475C38.0512 61.2075 38.0512 60.7313 37.7887 60.4913C37.5112 60.2363 37.1137 60.2363 36.8324 60.4913C36.2737 61.005 36.8287 62.01 37.1624 62.4863C37.7137 63.2738 38.4787 63.84 39.3974 64.1288C39.7199 64.23 40.0874 64.3125 40.4249 64.2413C40.7437 64.17 40.9762 63.885 40.9837 63.5588C40.9912 63.21 40.7512 62.9888 40.4962 62.7938C40.3912 62.7113 40.2824 62.6363 40.1774 62.5575C40.0762 62.4825 40.0199 62.4413 39.9749 62.4038C39.7874 62.2538 39.6037 62.1038 39.4237 61.9463C39.1349 61.695 38.8537 61.4325 38.5799 61.1625C38.1899 60.7763 37.5974 59.9888 36.9674 60.39C36.6712 60.5813 36.5212 60.9975 36.7237 61.3125C36.9337 61.605 37.3462 61.755 37.6649 61.5488Z" fill="#FF681C"/>
<path d="M41.43 22.6013C41.3588 22.71 41.2875 22.8188 41.2088 22.9238C41.19 22.95 41.1675 22.98 41.1488 23.0063C41.0813 23.0963 41.2575 22.8713 41.1413 23.0138C41.0813 23.0888 41.0213 23.16 40.9613 23.2313C40.83 23.3813 40.6913 23.5238 40.5488 23.655C40.4625 23.7338 40.3725 23.8125 40.2825 23.8875C40.2563 23.91 40.23 23.9325 40.2 23.955C40.26 23.91 40.2713 23.9025 40.23 23.9325C40.1775 23.97 40.1288 24.0075 40.0763 24.045C39.8625 24.195 39.6375 24.3338 39.4013 24.45C39.3375 24.4838 39.2738 24.5138 39.2063 24.5438C39.1838 24.555 39.0263 24.6188 39.135 24.5775C38.9813 24.6413 38.8275 24.6938 38.67 24.7425C38.3925 24.8288 38.1075 24.8888 37.8188 24.9338C37.9875 24.9075 37.8038 24.9338 37.7813 24.9375C37.7138 24.945 37.6463 24.9488 37.575 24.9563C37.4663 24.9638 37.3613 24.9675 37.2525 24.9675C36.9 24.9713 36.5625 25.275 36.5775 25.6425C36.5925 26.0025 36.8738 26.325 37.2525 26.3175C38.4938 26.2988 39.7388 25.9275 40.7588 25.2113C41.4938 24.6938 42.1163 24.0413 42.6 23.2838C42.7913 22.9838 42.6713 22.5263 42.3563 22.3613C42.0188 22.185 41.6325 22.2825 41.43 22.6013Z" fill="#FF681C"/>
<path d="M20.25 53.1713C20.4825 52.92 20.5125 52.5188 20.3025 52.1925C20.1187 51.8963 19.7062 51.825 19.4887 52.0613C19.4062 52.1513 19.3237 52.2488 19.2412 52.3425C17.91 53.895 16.9762 55.89 16.6875 58.1513C16.5937 58.8863 16.5675 59.64 16.6012 60.3938C16.6162 60.78 16.65 61.1663 16.74 61.545C17.0362 62.8013 17.8237 63.8475 18.705 64.5938C19.695 65.4375 20.8237 66.0713 21.9375 66.6075C23.0587 67.1475 24.2175 67.5713 25.3837 67.9125C27.0337 68.3925 28.71 68.6775 30.3862 68.8425C32.8275 69.0863 35.2762 69.1013 37.695 68.9063C38.0175 68.88 38.2012 68.49 38.16 68.13C38.1187 67.74 37.785 67.5 37.485 67.5263C37.1512 67.5525 36.8212 67.575 36.4912 67.5938C35.8462 67.6275 35.2012 67.65 34.5525 67.6538C34.3987 67.6538 34.2375 67.6538 34.08 67.6538C34.005 67.6538 33.9337 67.6538 33.8587 67.65C33.765 67.6538 33.945 67.6538 33.8512 67.65C33.8137 67.6463 33.78 67.65 33.7425 67.6463C33.4537 67.6425 33.165 67.635 32.88 67.6238C31.8862 67.5863 30.8962 67.5113 29.9062 67.3988C28.2525 67.2113 26.5987 66.885 24.975 66.375C24.9037 66.3525 24.8287 66.33 24.7575 66.3075C24.7237 66.2963 24.6937 66.285 24.66 66.2738C24.7462 66.3038 24.5737 66.2438 24.66 66.2738C24.5362 66.2288 24.4162 66.1875 24.2925 66.1463C24.0037 66.045 23.7225 65.9325 23.4412 65.82C22.8825 65.5913 22.3312 65.3363 21.7875 65.055C21.2212 64.7588 20.67 64.4363 20.13 64.0725C20.1 64.0575 19.92 63.9263 20.0512 64.02C19.995 63.9825 19.9462 63.945 19.8937 63.9113C19.7887 63.8363 19.6875 63.7575 19.5825 63.6788C19.3725 63.5138 19.17 63.3375 18.975 63.1463C18.915 63.0863 18.8512 63.0225 18.795 62.9588C18.7725 62.9325 18.75 62.9063 18.7237 62.88C18.7387 62.8988 18.8062 62.9813 18.7275 62.8875C18.645 62.7825 18.555 62.6775 18.48 62.5688C18.39 62.4413 18.3 62.31 18.2212 62.1713C18.1987 62.1375 18.1012 61.9463 18.165 62.0775C18.1312 62.0063 18.0975 61.935 18.0637 61.8638C17.9962 61.7063 17.9325 61.545 17.8762 61.38C17.8462 61.2788 17.8312 61.1738 17.88 61.4025C17.8537 61.26 17.82 61.125 17.8012 60.9825C17.7712 60.7725 17.7525 60.5625 17.7412 60.3525C17.7375 60.3075 17.715 60.1613 17.7412 60.345C17.7375 60.315 17.7412 60.2738 17.7375 60.2438C17.7375 60.1725 17.7337 60.0975 17.7337 60.03C17.7375 59.8725 17.7375 59.7113 17.7412 59.5538C17.7525 59.1863 17.775 58.8263 17.82 58.4663C17.8425 58.29 17.865 58.1175 17.895 57.9488C17.9025 57.9113 17.91 57.8738 17.9175 57.8325C17.9325 57.7275 17.8987 57.9338 17.9175 57.8325C17.9325 57.7575 17.9475 57.6788 17.9625 57.6C18.09 57.0113 18.27 56.4413 18.4912 55.9013C18.5175 55.83 18.5475 55.7625 18.5775 55.695C18.5212 55.83 18.5887 55.6725 18.6075 55.6275C18.66 55.515 18.7125 55.4025 18.7687 55.2938C18.8775 55.0838 18.9862 54.885 19.1062 54.6863C19.3162 54.3375 19.5412 54.0038 19.785 53.6888C19.8787 53.565 19.7137 53.7788 19.7925 53.685C19.8187 53.655 19.8412 53.625 19.8675 53.595C19.9125 53.5425 19.9575 53.4863 20.0062 53.4338C20.085 53.3475 20.1675 53.2575 20.25 53.1713Z" fill="#FF681C"/>
<path d="M26.9401 51.8213C27.1726 52.3575 27.5701 52.8 28.0726 53.1C28.1663 53.1562 28.2751 53.0437 28.2226 52.95C27.9488 52.4812 27.5851 52.0875 27.1351 51.78C26.8538 51.5888 26.0626 51.0675 25.9351 51.675C25.8863 51.9112 25.9951 52.1475 26.0851 52.3575C26.1863 52.6012 26.3101 52.8337 26.4563 53.0512C26.7413 53.4787 27.0976 53.8538 27.5101 54.165C27.9826 54.5213 28.5263 54.7763 29.1038 54.915C29.2276 54.945 29.3663 54.8325 29.3213 54.6975C28.8863 53.4037 27.9076 52.305 26.6588 51.7425C26.4001 51.6263 25.9651 51.3787 25.7176 51.6412C25.5001 51.8737 25.6613 52.2225 25.7888 52.455C26.1263 53.0888 26.6026 53.655 27.1613 54.105C27.4388 54.3263 27.7351 54.525 28.0501 54.6863C28.3351 54.8325 28.7363 55.0313 28.9913 54.7275C29.1938 54.4875 29.1001 54.1425 28.9876 53.8875C28.8451 53.5612 28.6688 53.2462 28.4588 52.9575C28.0388 52.3762 27.5101 51.885 26.8876 51.525C26.5726 51.3412 26.1976 51.135 25.8188 51.21C25.4926 51.2737 25.2713 51.5512 25.2188 51.87C25.1476 52.2712 25.3388 52.6313 25.5938 52.9238C25.8938 53.2688 26.2651 53.5688 26.6251 53.8463C27.2851 54.3563 28.1813 55.02 29.0476 54.6375C29.1451 54.5925 29.1826 54.4575 29.1601 54.3637C28.8151 52.9462 27.6451 51.9487 26.5463 51.0825C26.2651 50.8612 25.8901 50.64 25.5376 50.85C25.2676 51.0112 25.1926 51.3487 25.2151 51.6412C25.2676 52.2937 25.5676 52.9612 25.9351 53.4937C26.3213 54.0487 26.8238 54.5213 27.4126 54.855C27.9113 55.1363 28.5938 55.41 29.1526 55.125C29.8388 54.7762 29.5726 53.8575 29.3026 53.3213C28.9951 52.71 28.4813 52.23 27.9338 51.8363C27.4126 51.4613 26.7976 51.0637 26.1563 50.9475C25.8413 50.8912 25.5038 50.895 25.2226 51.0637C24.9301 51.24 24.7651 51.54 24.7276 51.8738C24.6526 52.5563 25.0688 53.235 25.4963 53.73C25.9351 54.2363 26.5126 54.6225 27.1463 54.8475C27.7613 55.0687 28.6388 55.23 29.0626 54.5963C29.5013 53.9438 29.0851 53.1825 28.6651 52.6463C28.2263 52.0913 27.6826 51.6187 27.0751 51.2512C26.7638 51.06 26.4301 50.9025 26.0888 50.7713C25.7701 50.6475 25.3726 50.4863 25.0276 50.505C24.1838 50.5463 24.4838 51.63 24.6676 52.1137C24.9113 52.7475 25.2638 53.3325 25.7101 53.8425C26.1563 54.3563 26.7038 54.7912 27.3076 55.11C27.9451 55.4437 28.7888 55.7475 29.4113 55.2113C30.0713 54.6413 29.5763 53.8087 29.1601 53.2687C28.7138 52.6912 28.1776 52.1962 27.5701 51.795C27.2626 51.5925 26.9401 51.42 26.6063 51.2738C26.2726 51.1313 25.8751 50.9362 25.5038 51.0562C24.8738 51.2587 24.8776 52.0575 25.0538 52.575C25.4963 53.8575 26.5538 54.8925 27.8363 55.3312C28.4513 55.5412 29.3026 55.6388 29.5538 54.8738C29.7563 54.255 29.4188 53.5312 29.1076 53.01C28.7513 52.4175 28.2601 51.9112 27.6826 51.5325C27.3976 51.345 27.0901 51.1912 26.7713 51.0787C26.4901 50.9812 26.1413 50.9325 25.8676 51.09C25.2151 51.4725 25.7026 52.4662 25.9801 52.9387C26.3176 53.5237 26.8126 54.0187 27.3938 54.3637C27.8776 54.6487 28.8376 55.0913 29.1226 54.33C29.3551 53.7075 28.8526 53.055 28.4926 52.6012C28.0313 52.02 27.4613 51.5213 26.8276 51.1425C26.5463 50.9738 26.1826 50.9213 25.9988 51.255C25.8563 51.5138 25.9163 51.8362 26.0176 52.095C26.5313 53.4037 27.5026 54.5213 28.7401 55.1963C29.0251 55.35 29.3926 55.4513 29.5988 55.1175C29.7563 54.8625 29.7113 54.54 29.6288 54.2662C29.4151 53.5575 29.0626 52.8975 28.6051 52.3125C28.3876 52.0387 28.1476 51.7725 27.8776 51.5475C27.6076 51.3225 27.2513 51.1275 26.8951 51.2625C26.7601 51.315 26.6776 51.435 26.7151 51.5812C27.0826 53.13 28.1438 54.4875 29.5651 55.2113C29.7676 55.3125 30.0038 55.1437 29.9476 54.9187C29.5838 53.46 28.6201 52.1813 27.3188 51.4275C27.1726 51.3413 26.9813 51.42 26.9363 51.5812C26.7563 52.2075 27.2138 52.7888 27.5663 53.2613C27.9413 53.7675 28.3538 54.24 28.8113 54.675C29.0138 54.87 29.2613 55.1625 29.5801 55.0762C29.8501 55.0012 29.9251 54.7125 29.8838 54.4687C29.8463 54.225 29.7001 53.985 29.5726 53.775C29.4263 53.5387 29.2576 53.3175 29.0738 53.1075C28.7063 52.695 28.2713 52.3425 27.8213 52.0238C27.5963 51.8663 27.3676 51.7125 27.1388 51.5662C26.9213 51.4275 26.6926 51.2438 26.4376 51.18C26.2013 51.12 25.9276 51.18 25.8338 51.4312C25.7363 51.705 25.9388 52.0387 26.0513 52.2825C26.2801 52.7775 26.5651 53.2387 26.8988 53.67C27.6526 54.645 28.6463 55.4287 29.7788 55.92C29.8801 55.965 30.0151 55.9725 30.0976 55.8787C30.4801 55.4362 30.2363 54.8813 29.9776 54.4425C29.7151 53.9963 29.4413 53.5575 29.1338 53.145C28.5113 52.305 27.7501 51.5738 26.7488 51.2213C26.5651 51.1575 26.3588 51.3637 26.4226 51.5475C26.9551 53.0437 28.0126 54.3187 29.3926 55.11C29.6326 55.2487 29.8726 54.9788 29.7563 54.7463C29.1488 53.5575 28.3426 52.4737 27.3788 51.5512C27.1838 51.3637 26.8763 51.5512 26.9326 51.81C27.2551 53.22 28.2076 54.4538 29.4901 55.1213C29.6626 55.2113 29.8988 55.1025 29.8913 54.8925C29.8726 54.2288 29.4451 53.7225 29.0288 53.2463C28.5226 52.6688 28.0163 52.095 27.5101 51.5175C27.3076 51.2888 26.9326 51.585 27.0901 51.8437C27.7913 52.9837 28.7063 53.97 29.7826 54.765C29.9626 54.9 30.2626 54.675 30.1763 54.4613C29.6588 53.1938 28.9126 52.0387 27.9563 51.06C27.7388 50.8387 27.3751 51.1238 27.5288 51.39C28.1401 52.4588 28.9351 53.4225 29.8763 54.2213C30.0638 54.3825 30.4538 54.2325 30.3413 53.9512C29.8426 52.695 29.1188 51.5513 28.1963 50.565C27.9676 50.3213 27.6076 50.6325 27.7501 50.91C28.3913 52.1775 29.2538 53.3287 30.2813 54.3075C30.5176 54.5325 30.8776 54.2475 30.7313 53.9625C29.9701 52.5 28.8488 51.2475 27.4913 50.31C27.2738 50.16 27.0263 50.4075 27.0751 50.6287C27.2813 51.5775 27.6788 52.485 28.2376 53.2762C28.5151 53.67 28.8301 54.0375 29.1826 54.3675C29.5426 54.705 29.9813 55.0087 30.4988 54.975C30.6713 54.9637 30.8326 54.8025 30.7688 54.6187C30.1801 52.89 28.9801 51.405 27.4013 50.4825C27.2363 50.385 26.9513 50.505 26.9813 50.7225C27.1538 52.0312 28.0126 53.07 29.0176 53.8725C29.4113 54.1875 30.0151 54.6375 30.5401 54.3375C31.1663 53.9737 30.6901 53.0737 30.4126 52.6312C30.0301 52.0275 29.4826 51.5362 28.8376 51.2325C28.6051 51.1237 28.4026 51.3 28.4363 51.54C28.6051 52.755 29.4638 53.7938 30.6001 54.2363C30.7988 54.315 30.9788 54.0863 30.9338 53.9025C30.6338 52.77 29.7563 51.8512 28.6463 51.4875C28.4888 51.435 28.2976 51.5775 28.3088 51.7463C28.3501 52.4363 28.5938 53.1038 29.0138 53.655C29.2238 53.9325 29.4638 54.1725 29.7413 54.3787C29.9926 54.5662 30.3563 54.8212 30.6826 54.8437C31.0463 54.87 31.2188 54.5438 31.1551 54.2175C31.0876 53.8763 30.8251 53.5425 30.6301 53.265C30.1876 52.6388 29.6438 52.0725 29.0176 51.6262C28.6988 51.4012 28.2751 51.24 27.9076 51.4537C27.6226 51.6187 27.4726 51.9487 27.4201 52.26C27.2963 52.995 27.5213 53.7375 27.9263 54.3488C28.3051 54.9225 28.8788 55.5637 29.5576 55.77C29.8801 55.8675 30.2476 55.8337 30.4838 55.5787C30.7276 55.32 30.7688 54.9188 30.7463 54.5775C30.6938 53.8463 30.3038 53.2012 29.8126 52.6762C29.5501 52.3987 29.2576 52.155 28.9501 51.9338C28.6388 51.7088 28.2901 51.5025 27.9038 51.4387C27.1651 51.3187 26.4713 51.7425 26.4113 52.5225C26.3551 53.235 26.7788 53.9325 27.2138 54.4575C27.4501 54.7425 27.7238 54.99 28.0201 55.2113C28.3163 55.4288 28.6801 55.665 29.0476 55.7287C29.7713 55.8562 30.1763 55.1588 30.1613 54.5213C30.1351 53.1075 28.8113 52.11 27.6638 51.5363C27.3451 51.3788 26.9888 51.18 26.6213 51.2213C26.2913 51.2588 26.0326 51.4988 25.9576 51.8213C25.8151 52.4475 26.1863 53.07 26.5538 53.5463C27.3863 54.6263 28.6876 55.305 30.0526 55.3613C30.3788 55.3725 30.6976 55.3425 31.0201 55.2863C31.3163 55.2375 31.1888 54.7875 30.8963 54.8363C29.8726 55.0088 28.7851 54.6938 27.9338 54.1238C27.5063 53.8388 27.1276 53.4675 26.8388 53.0437C26.7038 52.8412 26.5688 52.6237 26.5013 52.3875C26.4563 52.2262 26.4076 51.9863 26.5163 51.8363C26.6701 51.6225 27.0226 51.8138 27.2026 51.8963C27.4463 52.0088 27.6826 52.1325 27.9113 52.2713C28.3688 52.545 28.8038 52.8712 29.1376 53.2912C29.4301 53.6587 29.6701 54.1575 29.6363 54.6412C29.6213 54.825 29.5613 55.0537 29.4076 55.1662C29.1826 55.3275 28.8601 55.1175 28.6576 55.0012C28.1551 54.7125 27.7163 54.3112 27.3901 53.8312C27.1126 53.4262 26.7826 52.8375 26.9738 52.335C27.1951 51.7425 27.9601 51.9262 28.3688 52.17C28.8638 52.4625 29.3251 52.86 29.6813 53.3137C30.0263 53.7525 30.2776 54.2925 30.2326 54.8625C30.2138 55.095 30.1313 55.3238 29.8613 55.305C29.6138 55.2863 29.3813 55.1287 29.1938 54.9787C28.7401 54.6075 28.3426 54.1425 28.1063 53.5988C27.9113 53.1525 27.7801 52.5075 28.0276 52.0575C28.3388 51.4912 29.1601 52.38 29.4188 52.635C29.8576 53.0625 30.2288 53.5462 30.5326 54.0787C30.5588 54.1275 30.5963 54.1762 30.6188 54.2287C30.6338 54.2587 30.6338 54.3263 30.6526 54.3525C30.6376 54.3338 30.6563 54.3825 30.6526 54.3825C30.8851 54.4612 30.7088 54.3188 30.7051 54.315C30.6901 54.2888 30.5551 54.2513 30.5213 54.2363C30.2813 54.12 30.0563 53.97 29.8613 53.7937C29.4713 53.445 29.1676 52.9987 28.9988 52.5C28.9163 52.2562 28.8676 52.005 28.8526 51.75C28.7401 51.8362 28.6276 51.9225 28.5151 52.0088C29.4488 52.3163 30.1763 53.1 30.4238 54.0488C30.5363 53.9363 30.6451 53.8275 30.7576 53.715C29.7901 53.3325 29.1151 52.4137 28.9763 51.3937C28.8413 51.495 28.7101 51.6 28.5751 51.7012C29.0288 51.915 29.4301 52.2225 29.7451 52.6125C29.8988 52.8 30.0263 53.01 30.1313 53.2275C30.1913 53.3513 30.3976 53.7188 30.2926 53.8425C30.2138 53.9363 29.9551 53.8237 29.8726 53.7825C29.6588 53.6812 29.4676 53.5125 29.2876 53.3625C28.8976 53.0362 28.5226 52.6763 28.2226 52.2675C27.8888 51.81 27.6301 51.285 27.5551 50.7187C27.4163 50.7975 27.2738 50.88 27.1351 50.9588C28.5826 51.81 29.7001 53.1713 30.2401 54.7613C30.3301 54.6413 30.4201 54.525 30.5101 54.405C30.0826 54.435 29.7451 54.1162 29.4601 53.835C29.1526 53.5275 28.8751 53.1938 28.6313 52.8338C28.1513 52.1138 27.8138 51.315 27.6301 50.4713C27.4913 50.5763 27.3526 50.685 27.2138 50.79C28.4926 51.6713 29.5313 52.8638 30.2476 54.24C30.3976 54.1238 30.5476 54.0112 30.6976 53.895C29.7038 52.9462 28.8788 51.84 28.2526 50.6137C28.1026 50.73 27.9563 50.8425 27.8063 50.9588C28.6651 51.8663 29.3513 52.9312 29.8163 54.0937C29.9701 54.0037 30.1276 53.9138 30.2813 53.8238C29.3738 53.055 28.6051 52.14 28.0126 51.1088C27.8701 51.2175 27.7276 51.33 27.5851 51.4387C28.4776 52.3462 29.1938 53.4188 29.6738 54.5963C29.8051 54.495 29.9363 54.3938 30.0676 54.2925C29.0663 53.5538 28.2188 52.6237 27.5663 51.5662C27.4276 51.675 27.2851 51.7838 27.1463 51.8925C27.6038 52.4138 28.0613 52.9313 28.5188 53.4525C28.8751 53.8575 29.3551 54.3112 29.3701 54.885C29.5051 54.8062 29.6363 54.7312 29.7713 54.6562C28.6013 54.0487 27.7501 52.95 27.4576 51.6637C27.3076 51.75 27.1613 51.8362 27.0113 51.9225C27.9488 52.815 28.7213 53.8575 29.3101 55.0088C29.4301 54.8888 29.5538 54.765 29.6738 54.645C28.4176 53.925 27.4351 52.7662 26.9476 51.3975C26.8388 51.5062 26.7301 51.615 26.6213 51.7238C27.4463 52.0163 28.0951 52.6312 28.6201 53.3137C28.8901 53.6625 29.1263 54.0337 29.3551 54.4125C29.4713 54.6037 29.5951 54.795 29.6888 54.9975C29.7526 55.1362 29.8501 55.3687 29.7301 55.5037C29.8351 55.4887 29.9438 55.4775 30.0488 55.4625C28.4438 54.7687 27.1238 53.4713 26.4376 51.8588C26.4151 51.81 26.3963 51.7613 26.3776 51.7088C26.3701 51.69 26.2801 51.4538 26.2763 51.6675C26.2763 51.705 26.2538 51.6487 26.2988 51.6825C26.3213 51.6975 26.3626 51.7012 26.3888 51.7162C26.5913 51.81 26.7826 51.96 26.9701 52.08C27.3451 52.32 27.7163 52.5712 28.0576 52.86C28.3913 53.1375 28.7101 53.445 28.9613 53.8012C29.0813 53.97 29.1938 54.15 29.2838 54.3375C29.3213 54.4162 29.3363 54.5062 29.3701 54.5812C29.3326 54.5025 29.3776 54.6525 29.3663 54.6375C29.4713 54.6037 29.4901 54.5662 29.4188 54.5325C29.3851 54.5025 29.3551 54.4725 29.3213 54.4425C28.9013 54.0563 28.5076 53.6325 28.1551 53.1825C27.9788 52.9575 27.8101 52.725 27.6563 52.485C27.5101 52.2562 27.3601 51.9975 27.4388 51.72C27.3113 51.7725 27.1838 51.825 27.0563 51.8738C28.2488 52.56 29.1151 53.7187 29.4488 55.0537C29.5763 54.9562 29.7038 54.8588 29.8313 54.7613C28.5226 54.0975 27.5588 52.875 27.2213 51.4425C27.1613 51.5475 27.1013 51.6563 27.0413 51.7613C27.3001 51.6638 27.5476 51.93 27.7201 52.095C27.9301 52.2937 28.1251 52.5112 28.2976 52.7437C28.6463 53.2087 28.9201 53.73 29.1001 54.285C29.1338 54.3937 29.1788 54.5062 29.1901 54.6187C29.1938 54.6637 29.1976 54.7163 29.1901 54.7613C29.1826 54.795 29.1638 54.8437 29.1676 54.8437C29.1638 54.8437 28.9726 54.7275 28.9351 54.705C28.8113 54.6338 28.6876 54.5588 28.5676 54.48C28.1101 54.1725 27.7013 53.7937 27.3526 53.3662C27.0076 52.9462 26.7226 52.4625 26.5238 51.9562C26.4863 51.8625 26.4488 51.765 26.4413 51.6637C26.4376 51.6225 26.4413 51.5812 26.4488 51.5437C26.4526 51.525 26.4601 51.5175 26.4638 51.4988C26.4788 51.45 26.4638 51.5212 26.4413 51.51C26.6363 51.6262 26.9138 51.7987 27.1238 51.96C27.5851 52.3162 27.9976 52.7475 28.3313 53.2312C28.4701 53.4337 28.6088 53.6363 28.6538 53.88C28.6838 54.0338 28.6876 54.2475 28.4813 54.2437C28.2338 54.24 27.9451 54.075 27.7313 53.955C27.5026 53.8275 27.2888 53.6737 27.0976 53.4975C26.7151 53.145 26.3963 52.7062 26.2088 52.2187C26.1526 52.0687 25.9538 51.6525 26.1338 51.5325C26.2951 51.4237 26.5876 51.5513 26.7451 51.6113C27.2438 51.81 27.6976 52.1212 28.0726 52.5037C28.4476 52.8825 28.7588 53.34 28.9538 53.8387C29.0813 54.165 29.2951 54.915 28.7476 54.9825C28.4776 55.0162 28.1776 54.9113 27.9263 54.8213C27.6788 54.735 27.4463 54.615 27.2213 54.48C26.7751 54.2063 26.3776 53.8462 26.0701 53.4225C25.7926 53.04 25.4963 52.545 25.4663 52.0613C25.4551 51.9 25.4588 51.6525 25.6238 51.5662C25.8413 51.45 26.2313 51.6713 26.4301 51.7613C27.4651 52.2263 28.4101 52.9875 29.0176 53.955C29.1601 54.18 29.3326 54.51 29.1488 54.7613C28.9951 54.9675 28.7138 55.0237 28.4738 55.0012C27.9188 54.945 27.3526 54.5887 26.9101 54.2625C26.0513 53.6325 25.3876 52.7137 25.0651 51.6975C25.0201 51.555 24.8738 51.195 24.9976 51.0562C25.0651 50.9775 25.2338 51.0488 25.3163 51.0713C25.4588 51.1088 25.6013 51.15 25.7401 51.195C26.2763 51.375 26.7826 51.645 27.2401 51.9787C27.6938 52.3087 28.1101 52.7212 28.4326 53.1825C28.6726 53.5275 29.0063 54.3188 28.3988 54.5175C28.1476 54.6 27.8476 54.5325 27.6001 54.4687C27.3413 54.405 27.0976 54.3075 26.8613 54.1838C26.3963 53.9363 25.9763 53.5838 25.6726 53.1488C25.4101 52.7775 25.0576 52.17 25.2901 51.705C25.5263 51.2363 26.1901 51.4387 26.5538 51.6C27.0376 51.8175 27.5138 52.1213 27.9263 52.455C28.3351 52.7888 28.7026 53.1863 28.9201 53.6738C29.0213 53.8988 29.1376 54.2138 29.0926 54.465C29.0551 54.675 28.8563 54.7462 28.6651 54.7537C28.1813 54.7687 27.7013 54.4875 27.3188 54.2175C26.8876 53.9138 26.5201 53.5162 26.2463 53.07C25.9838 52.65 25.7438 52.1287 25.7101 51.6262C25.6951 51.375 25.7663 51.1763 26.0438 51.33C26.2913 51.4688 26.5163 51.6825 26.7338 51.8662C27.1726 52.23 27.6001 52.62 27.9601 53.0625C28.3051 53.4862 28.5676 53.97 28.6951 54.5025C28.7326 54.4125 28.7701 54.3187 28.8076 54.2287C28.2526 54.4725 27.5738 53.94 27.1501 53.64C26.8876 53.4563 26.6401 53.2575 26.4001 53.0437C26.1751 52.845 25.9276 52.6388 25.7776 52.38C25.6726 52.2 25.6201 51.9375 25.7738 51.765C25.9651 51.5438 26.3363 51.7612 26.5351 51.8662C27.0226 52.125 27.4576 52.47 27.8251 52.8787C28.0126 53.0887 28.1813 53.3137 28.3276 53.55C28.4626 53.7675 28.6163 54.0187 28.6763 54.27C28.6913 54.33 28.7213 54.4463 28.6538 54.4838C28.5601 54.5325 28.3163 54.3713 28.2376 54.33C27.9901 54.2025 27.7501 54.0562 27.5288 53.8875C27.0863 53.5575 26.6963 53.1487 26.3888 52.6912C26.3138 52.5787 26.2426 52.4663 26.1751 52.3463C26.1188 52.2488 26.0138 52.1063 26.0138 51.9863C26.0138 51.9113 26.0026 51.9225 26.0738 51.9412C26.1376 51.9562 26.1976 51.9825 26.2576 52.005C26.3888 52.0538 26.5201 52.11 26.6438 52.1738C27.7276 52.7063 28.5826 53.6625 28.9801 54.8062C29.0513 54.735 29.1263 54.66 29.1976 54.5887C28.1363 54.3487 27.2026 53.67 26.6363 52.7437C26.4976 52.515 26.3738 52.2712 26.2876 52.0162C26.2613 51.9375 26.1713 51.7163 26.3176 51.705C26.4376 51.6975 26.6401 51.8363 26.7451 51.8925C27.2701 52.17 27.7163 52.5825 28.0388 53.0775C28.0876 53.0288 28.1363 52.98 28.1888 52.9275C27.6938 52.6688 27.3076 52.2712 27.0563 51.7725C27.0113 51.6862 26.9063 51.75 26.9401 51.8213Z" fill="#FF681C"/>
<path d="M45.7312 54.795C45.795 54.6525 45.7687 54.5138 45.66 54.3975C45.5212 54.255 45.3187 54.2475 45.1387 54.3C44.745 54.4163 44.295 54.69 44.1225 55.0725C43.9612 55.4288 44.0325 55.8863 44.3962 56.085C44.7375 56.2725 45.1725 56.1938 45.5175 56.0588C46.3387 55.74 47.0475 55.1775 47.5612 54.4613C47.685 54.2925 47.7937 54.1125 47.8912 53.925C47.9962 53.7188 48.1237 53.4675 48 53.2388C47.8125 52.8825 47.3362 52.9838 47.0475 53.1375C46.14 53.6213 45.2925 54.2625 44.5162 54.93C44.205 55.2 43.6687 55.62 43.9725 56.0813C44.2087 56.445 44.8575 56.4788 45.2437 56.4675C46.1887 56.4413 47.0775 55.9725 47.7 55.2713C48.0075 54.9263 48.2587 54.5363 48.4575 54.1238C48.645 53.7338 48.8287 53.3025 48.8287 52.86C48.8287 52.4213 48.5925 52.02 48.1612 51.8925C47.7262 51.7613 47.265 51.9338 46.8712 52.11C46.3912 52.3238 45.93 52.5788 45.4912 52.8675C45.0862 53.1375 44.67 53.4263 44.34 53.7863C43.7587 54.4125 43.32 55.4625 44.0812 56.145C44.8087 56.7938 45.8287 56.5388 46.5225 55.9913C47.2762 55.4025 47.8575 54.5513 48.27 53.6963C48.4725 53.28 48.69 52.8263 48.78 52.3688C48.8662 51.9263 48.6862 51.4163 48.15 51.45C47.6737 51.4838 47.1712 51.6638 46.725 51.825C46.26 51.9938 45.81 52.1925 45.3787 52.4288C44.9475 52.665 44.535 52.9388 44.145 53.2388C43.7775 53.5238 43.3275 53.8388 43.275 54.3338C43.17 55.275 44.2462 55.9275 45.045 56.0475C45.9675 56.1863 46.845 55.8675 47.5425 55.2638C48.1612 54.7275 48.8287 53.8388 48.7762 52.9763C48.7162 51.915 47.5425 51.645 46.7062 52.005C46.305 52.1775 45.96 52.4663 45.6825 52.7963C45.3862 53.145 45.0862 53.565 44.9625 54.015C44.8275 54.4988 45.0112 54.9863 45.4612 55.2188C45.8775 55.4325 46.38 55.4363 46.8262 55.3313C47.7862 55.0988 48.4912 54.3338 48.945 53.49C49.1587 53.0925 49.395 52.6388 49.4212 52.1775C49.4475 51.7313 49.17 51.315 48.7162 51.2363C48.2887 51.165 47.865 51.345 47.5012 51.5513C47.0962 51.7838 46.7062 52.0388 46.35 52.3425C45.7537 52.8525 44.7637 54.1088 45.6787 54.7875C46.455 55.365 47.5762 54.855 48.1012 54.1838C48.4087 53.7938 48.6037 53.3288 48.7237 52.8488C48.8212 52.4588 48.945 51.9675 48.7275 51.5925C48.4537 51.1163 47.9212 51.2813 47.52 51.4725C47.1262 51.66 46.7625 51.9113 46.4362 52.2075C46.1137 52.5 45.8325 52.845 45.6037 53.2163C45.375 53.5913 45.0937 54.09 45.1462 54.5438C45.1987 55.0013 45.6112 55.2375 46.035 55.2638C46.455 55.29 46.8862 55.0988 47.2237 54.8625C48.0337 54.2925 48.4612 53.3925 48.765 52.4775C48.9037 52.0575 49.1962 51.4538 48.8325 51.0713C48.5475 50.7713 48.0862 50.8763 47.7637 51.0413C47.37 51.24 47.025 51.6075 46.7137 51.9113C46.3575 52.2563 46.0237 52.6275 45.7162 53.0213C45.405 53.415 45.1162 53.8275 44.8612 54.2588C44.6475 54.615 44.25 55.1925 44.775 55.4925C45.255 55.7663 45.6562 55.32 45.9487 54.9938C46.2862 54.6188 46.5975 54.2175 46.8825 53.8013C47.1637 53.385 47.4112 52.95 47.6287 52.5C47.7975 52.1513 48.0825 51.5625 47.6025 51.3113C47.3662 51.1875 47.1262 51.2925 46.935 51.4463C46.7362 51.6075 46.5525 51.795 46.3725 51.975C46.02 52.335 45.6937 52.7213 45.39 53.1263C45.1012 53.5088 44.7975 53.9213 44.595 54.36C44.5087 54.5513 44.445 54.7688 44.5125 54.975C44.595 55.2225 44.835 55.365 45.0862 55.3463C45.51 55.3125 45.93 54.915 46.2225 54.6338C46.5375 54.33 46.8075 53.9775 47.0437 53.6063C47.5125 52.8675 47.8387 52.05 48.1575 51.24C48.255 50.9925 47.9175 50.745 47.7037 50.8913C46.4362 51.7538 45.615 53.1225 45.4312 54.6413C45.405 54.855 45.6487 54.975 45.8212 54.9375C46.65 54.7725 47.37 54.2213 47.8012 53.5013C48.0187 53.1338 48.1575 52.7288 48.21 52.305C48.255 51.93 48.2475 51.27 47.7037 51.3038C47.4787 51.3188 47.2687 51.5063 47.1037 51.6488C46.9275 51.7988 46.7775 51.9713 46.6425 52.155C46.3762 52.5113 46.185 52.9088 46.0237 53.3213C45.945 53.5163 45.8775 53.715 45.8137 53.9138C45.7462 54.1238 45.6675 54.3563 45.7912 54.5663C46.0912 55.08 46.6725 54.6263 46.935 54.345C47.6587 53.5575 48.0825 52.5375 48.1462 51.4725C48.1612 51.2475 47.8762 51.0863 47.685 51.21C46.5637 51.945 45.7087 52.995 45.195 54.2288C45.09 54.48 45.4312 54.7013 45.6412 54.5738C46.4587 54.0638 47.0737 53.1825 47.1787 52.2113C47.205 51.9788 47.1112 51.7425 46.875 51.6563C46.635 51.57 46.395 51.6675 46.185 51.7838C45.7275 52.035 45.3225 52.38 44.9587 52.7513C44.7825 52.9313 44.6137 53.115 44.4487 53.3063C44.2875 53.49 44.0962 53.6738 43.995 53.9025C43.785 54.3675 44.1225 54.84 44.5987 54.9263C45.09 55.0163 45.4912 54.6938 45.7762 54.33C46.125 53.8875 46.4362 53.4113 46.7175 52.9238C46.8525 52.6875 46.9837 52.4475 47.1037 52.2C47.1675 52.0725 47.265 51.9338 47.2237 51.7875C47.19 51.6638 47.0812 51.5588 46.9687 51.5025C46.5412 51.285 46.0762 51.66 45.7875 51.9375C45.1125 52.5863 44.6512 53.5688 44.6887 54.5138C44.7112 55.0388 45.0037 55.4813 45.5512 55.545C46.0575 55.605 46.485 55.3163 46.8262 54.9713C47.19 54.6075 47.5275 54.165 47.6025 53.6438C47.67 53.1788 47.5275 52.6763 47.1375 52.3875C46.6762 52.0463 46.065 52.1325 45.5512 52.2863C45.0262 52.44 44.4562 52.6688 44.1975 53.19C43.9425 53.7075 44.115 54.3038 44.64 54.5663C45.225 54.855 45.8137 54.6 46.365 54.3638C46.4925 54.3075 46.5187 54.1275 46.455 54.0188C46.38 53.8875 46.2337 53.8725 46.11 53.9288C45.7537 54.0825 45.3075 54.2475 44.9287 54.075C44.5987 53.925 44.5875 53.5688 44.8087 53.31C45.06 53.0138 45.51 52.8975 45.8737 52.8075C46.185 52.7325 46.6162 52.6613 46.86 52.9275C47.4 53.5125 46.6387 54.4125 46.1737 54.765C45.9637 54.9263 45.5287 55.1063 45.3487 54.8025C45.18 54.5175 45.3037 54.0375 45.3825 53.7413C45.4912 53.3475 45.6787 52.9725 45.9337 52.6538C46.065 52.4888 46.215 52.3388 46.3762 52.2038C46.44 52.1513 46.5112 52.095 46.59 52.0613C46.6537 52.035 46.7025 52.0575 46.6762 52.0163C46.6762 51.915 46.6762 51.8175 46.6762 51.7163C46.3912 52.3125 46.0612 52.8863 45.69 53.4338C45.51 53.6963 45.015 54.5963 44.5837 54.2925C44.4 54.1613 44.6925 53.9288 44.7825 53.8238C44.9812 53.595 45.1837 53.37 45.3975 53.1525C45.6037 52.9425 45.825 52.74 46.065 52.5675C46.1812 52.485 46.305 52.4063 46.4287 52.335C46.4887 52.3013 46.5487 52.2713 46.6087 52.2413C46.6987 52.1963 46.6612 52.2488 46.6387 52.2188C46.6125 52.1738 46.5862 52.1288 46.56 52.0838C46.62 52.2263 46.5075 52.4813 46.4625 52.62C46.395 52.8188 46.305 53.0063 46.1925 53.1825C45.975 53.5313 45.6787 53.8238 45.33 54.0413C45.48 54.1575 45.63 54.27 45.7762 54.3863C46.2262 53.3063 47.0137 52.3725 47.9887 51.735C47.835 51.6488 47.6812 51.5588 47.5275 51.4725C47.4937 52.0163 47.3475 52.5563 47.0962 53.04C46.9725 53.2838 46.8225 53.5163 46.65 53.73C46.56 53.8388 46.4662 53.9438 46.3687 54.0413C46.335 54.075 46.305 54.1125 46.2675 54.1388C46.1625 54.2175 46.215 54.1313 46.2675 54.195C46.2937 54.24 46.32 54.285 46.3462 54.33C46.3125 54.2438 46.4062 54.0638 46.4362 53.97C46.485 53.8238 46.5337 53.6813 46.59 53.5388C46.6912 53.28 46.8112 53.0288 46.9537 52.7925C47.0925 52.56 47.2575 52.3463 47.4562 52.1588C47.505 52.1138 47.5537 52.0688 47.6062 52.0275C47.6362 52.005 47.6662 51.9825 47.6962 51.9638C47.7937 51.9225 47.76 51.8775 47.595 51.8325C47.5875 51.84 47.61 51.975 47.61 51.9863C47.61 52.0463 47.6062 52.11 47.6025 52.17C47.5275 53.22 46.6762 54.135 45.6562 54.3375C45.7875 54.435 45.9187 54.5363 46.0462 54.6338C46.2037 53.3475 46.9462 52.1438 48.015 51.4163C47.865 51.3 47.7112 51.1838 47.5612 51.0675C47.085 52.2825 46.5525 53.6175 45.4912 54.4463C45.3637 54.5438 45.2137 54.615 45.0862 54.7125C45.0825 54.7163 45.0337 54.7238 45.0337 54.7238C45.03 54.6413 45.1162 54.795 45.1012 54.7988C45.0937 54.8025 45.1462 54.6225 45.15 54.6188C45.315 54.2738 45.5512 53.9513 45.7687 53.64C46.2075 53.0213 46.7212 52.4213 47.3025 51.93C47.3175 51.915 47.3662 51.8888 47.3737 51.8738C47.3812 51.87 47.3887 51.8625 47.3962 51.8588C47.2612 51.7463 47.2087 51.7163 47.2425 51.7688C47.2275 51.7875 47.2162 51.8888 47.2087 51.915C47.145 52.0838 47.0512 52.2525 46.9687 52.4138C46.7887 52.7625 46.59 53.1 46.3725 53.4263C46.1587 53.7488 45.9262 54.06 45.675 54.3525C45.5625 54.4838 45.4462 54.615 45.3262 54.7425C45.27 54.8025 45.2137 54.8663 45.1462 54.9188C45.105 54.9525 45.0862 54.9525 45.0825 54.9675C45.045 55.1625 45.1725 54.93 45.1912 54.8925C45.2325 54.8175 45.2737 54.7463 45.315 54.6713C45.4087 54.5063 45.51 54.345 45.615 54.1838C45.8212 53.8688 46.0387 53.5613 46.275 53.2725C46.7437 52.6988 47.2725 52.1325 47.8612 51.6788C47.9437 51.615 48.3375 51.3825 48.3975 51.495C48.4387 51.57 48.3375 51.7875 48.3112 51.8663C48.2512 52.0575 48.1912 52.2488 48.1275 52.4363C47.8912 53.1188 47.565 53.8163 46.98 54.27C46.7587 54.4425 46.4775 54.6 46.1962 54.6338C45.975 54.66 45.7087 54.6188 45.7575 54.345C45.8137 54.0225 46.0125 53.6888 46.1887 53.4188C46.3687 53.1413 46.5825 52.89 46.8225 52.665C47.055 52.4438 47.3175 52.2563 47.595 52.1025C47.7262 52.0275 47.865 51.9563 48.0075 51.9038C48.1275 51.8588 48.195 51.8288 48.225 51.96C48.2887 52.2413 48.1612 52.5975 48.0825 52.8638C47.9775 53.2125 47.8275 53.5613 47.5875 53.8388C47.37 54.09 47.0887 54.285 46.7625 54.3675C46.5337 54.4238 46.11 54.45 45.9675 54.2138C45.8062 53.955 46.08 53.5575 46.2225 53.3513C46.4175 53.0738 46.6762 52.83 46.9462 52.6238C47.2312 52.4063 47.5425 52.215 47.8537 52.0388C48.0637 51.9188 48.3637 51.765 48.615 51.825C49.17 51.9638 48.4012 53.1938 48.2512 53.4338C47.8725 54.0488 47.3212 54.5738 46.5937 54.7313C46.3087 54.7913 45.9525 54.795 45.7012 54.6338C45.3975 54.435 45.57 54.075 45.7087 53.82C46.0125 53.2763 46.47 52.695 47.0887 52.5075C47.3587 52.425 47.7037 52.41 47.9475 52.5825C48.1912 52.7588 48.1762 53.0813 48.1087 53.34C47.9437 53.9475 47.475 54.525 46.9837 54.9038C46.4737 55.2975 45.8362 55.515 45.195 55.4288C44.895 55.3875 44.6025 55.2788 44.3512 55.1063C44.1337 54.9525 43.8412 54.6675 43.8825 54.3713C43.9012 54.2325 44.0212 54.1275 44.1187 54.0375C44.2612 53.9063 44.4112 53.7863 44.565 53.6663C44.8575 53.4413 45.1687 53.235 45.4912 53.0475C46.14 52.6725 46.83 52.38 47.55 52.1813C47.7337 52.1325 47.9175 52.0763 48.105 52.0463C48.1312 52.0425 48.18 52.0238 48.2062 52.035C48.2025 52.035 48.18 52.0125 48.18 52.0163C48.1987 52.0575 48.1912 52.1213 48.1875 52.1663C48.1462 52.4888 47.9775 52.8375 47.8462 53.13C47.55 53.7975 47.1637 54.4313 46.6725 54.9788C46.245 55.455 45.6525 56.01 44.955 55.8975C44.6887 55.8525 44.4262 55.7138 44.31 55.4588C44.1825 55.1775 44.2762 54.8625 44.4187 54.6075C44.7787 53.97 45.45 53.5238 46.0575 53.1488C46.3987 52.935 46.755 52.7475 47.1187 52.5788C47.3737 52.4625 47.7 52.3163 47.985 52.3913C48.6262 52.5525 48.075 53.6475 47.9062 53.9813C47.5875 54.6038 47.1375 55.1738 46.5262 55.53C45.9487 55.8675 45.1275 56.0775 44.4825 55.815C44.4187 55.7888 44.4 55.785 44.415 55.7213C44.4337 55.65 44.5237 55.5788 44.5725 55.53C44.7187 55.3913 44.8725 55.2563 45.0262 55.125C45.3375 54.8625 45.6562 54.6075 45.9862 54.3713C46.305 54.1388 46.635 53.9213 46.9687 53.715C47.1037 53.6325 47.2387 53.5313 47.3887 53.475C47.4412 53.4563 47.49 53.4563 47.5425 53.4413C47.5687 53.4338 47.595 53.4525 47.5875 53.4413C47.5612 53.4038 47.5575 53.475 47.55 53.49C47.3887 53.8013 47.2387 54.1013 47.025 54.3788C46.815 54.6488 46.5675 54.8963 46.2975 55.1063C46.035 55.3125 45.7425 55.485 45.4387 55.6238C45.1912 55.7363 44.82 55.875 44.5575 55.725C44.2162 55.5338 44.3925 55.0913 44.6137 54.8813C44.7375 54.7613 44.8875 54.6638 45.0375 54.5775C45.1162 54.5325 45.1987 54.4838 45.2887 54.465C45.4237 54.435 45.63 54.5063 45.57 54.6863C45.5325 54.8213 45.69 54.8888 45.7312 54.795Z" fill="#FF681C"/>
<path d="M45.6713 54.3C46.0913 53.7375 46.2075 53.0325 45.9525 52.3725C45.9188 52.29 45.8213 52.2488 45.75 52.32C44.8388 53.2013 44.4525 54.54 44.5088 55.7813C44.5125 55.9013 44.6588 56.0175 44.7713 55.9313C45.6525 55.26 46.035 54.0563 45.7688 52.9913C45.7463 52.905 45.6638 52.8488 45.5775 52.845C45.1763 52.8338 44.8013 53.145 44.775 53.5538C44.7525 53.9325 45.0338 54.3038 45.4313 54.2813C45.5588 54.2738 45.615 54.105 45.4988 54.0338C45.3525 53.9475 45.1913 53.7788 45.1838 53.5988C45.18 53.385 45.375 53.2388 45.5775 53.2388C45.5138 53.19 45.45 53.1413 45.3863 53.0925C45.6413 54.0413 45.2888 55.0125 44.5613 55.65C44.6625 55.6913 44.76 55.7325 44.8613 55.7738C44.7113 54.5588 45.165 53.4188 45.9225 52.485C45.8588 52.4775 45.795 52.47 45.7313 52.4588C46.0238 53.0138 45.9713 53.745 45.5925 54.2475C45.5588 54.3 45.6375 54.345 45.6713 54.3Z" fill="#FF681C"/>
<path d="M26.2575 53.7262C26.355 54.5737 26.85 55.2563 27.54 55.7363C27.6637 55.8225 27.825 55.6538 27.7462 55.53C27.09 54.5063 26.3025 53.5763 25.4062 52.755C25.2487 52.6125 25.0125 52.7925 25.1137 52.98C25.6537 53.985 26.475 54.8138 27.4725 55.365C27.645 55.4588 27.8587 55.2637 27.75 55.0875C27.1425 54.1162 26.28 53.3287 25.2562 52.8187C25.0687 52.725 24.8587 52.9163 24.9637 53.1113C25.4812 54.06 26.235 54.8587 27.1425 55.4437C27.3262 55.56 27.555 55.3275 27.4387 55.1475C26.925 54.3262 26.19 53.6587 25.3087 53.2575C25.0425 53.1375 24.8137 53.505 25.0762 53.655C25.38 53.8275 25.68 54 25.9837 54.1687C26.2275 54.3075 26.4675 54.4613 26.7262 54.5738C26.925 54.66 27.1537 54.7425 27.3712 54.7275C27.5775 54.7125 27.7725 54.5475 27.87 54.3713C27.945 54.2325 27.7725 54.105 27.6562 54.2062C27.5362 54.3112 27.3412 54.2737 27.195 54.2437C27.0187 54.2062 26.8575 54.1275 26.7037 54.0412C26.2387 53.7787 25.7737 53.5162 25.3087 53.2537C25.23 53.385 25.155 53.52 25.0762 53.6512C25.89 54.0187 26.5875 54.6038 27.0637 55.365C27.1612 55.2675 27.2625 55.1662 27.36 55.0687C26.5087 54.525 25.815 53.7787 25.3312 52.8975C25.2337 52.995 25.1362 53.0925 25.0387 53.19C26.0025 53.6663 26.82 54.39 27.4012 55.2937C27.495 55.2 27.585 55.11 27.6787 55.0162C26.73 54.5062 25.9537 53.7375 25.4362 52.7925C25.3387 52.8675 25.2412 52.9425 25.1437 53.0175C26.04 53.7975 26.8237 54.6975 27.4837 55.6838C27.5512 55.6163 27.6225 55.545 27.69 55.4775C27 55.1475 26.5425 54.4462 26.3962 53.7075C26.3812 53.6287 26.2462 53.6437 26.2575 53.7262Z" fill="#FF681C"/>
<path d="M44.535 56.0138C44.5013 55.9088 44.475 55.8 44.4525 55.695C44.4338 55.605 44.4188 55.515 44.4038 55.425C44.3775 55.2825 44.43 55.6575 44.4188 55.5488C44.415 55.5188 44.4113 55.4925 44.4075 55.4625C44.4 55.395 44.3963 55.3275 44.3888 55.2563C44.3813 55.125 44.3775 54.9975 44.3813 54.8663C44.3813 54.7913 44.385 54.72 44.3925 54.645C44.3963 54.6075 44.4 54.57 44.4038 54.5325C44.4188 54.3225 44.37 54.735 44.4 54.5625C44.4263 54.4163 44.4525 54.2738 44.4938 54.1275C44.5163 54.045 44.5425 53.9625 44.5688 53.88C44.5838 53.8388 44.6213 53.775 44.625 53.73C44.61 53.7675 44.5913 53.8088 44.5763 53.8463C44.5913 53.8125 44.6063 53.7788 44.6213 53.745C44.7 53.58 44.7863 53.4263 44.8875 53.2763C44.9138 53.235 44.9438 53.1938 44.9738 53.1525C45.0675 53.0175 44.9475 53.1788 44.9438 53.19C44.9625 53.1075 45.12 52.9875 45.18 52.9238C45.2963 52.8038 45.465 52.7025 45.5663 52.575C45.555 52.5863 45.3863 52.7063 45.51 52.62C45.5475 52.5938 45.5813 52.5675 45.6188 52.545C45.6975 52.4888 45.78 52.4363 45.8625 52.3875C46.0163 52.2975 46.1738 52.2188 46.335 52.14C46.395 52.11 46.4663 52.1138 46.2675 52.1663C46.32 52.1513 46.3688 52.125 46.4175 52.1063C46.5038 52.0725 46.59 52.0463 46.6763 52.0163C46.8525 51.96 47.0325 51.915 47.2125 51.8775C47.3025 51.8588 47.3963 51.8438 47.4863 51.8288C47.565 51.8138 47.5913 51.8513 47.415 51.8363C47.4675 51.84 47.5313 51.8213 47.5838 51.8175C47.8125 51.795 48.0413 51.7875 48.27 51.795C48.3675 51.7988 48.4613 51.8025 48.5588 51.81C48.6188 51.8138 48.675 51.8213 48.7313 51.825C48.795 51.8325 48.9788 51.8738 48.7238 51.8213C49.1775 51.915 49.6163 52.005 50.0475 52.1738C50.4863 52.3463 51.0525 51.9863 51.1538 51.5438C51.27 51.0263 50.9963 50.6213 50.5238 50.4375C48.8138 49.7738 46.8075 49.8488 45.1763 50.7038C44.37 51.1238 43.6575 51.7763 43.2 52.5638C42.7763 53.295 42.57 54.1463 42.5738 54.99C42.5775 55.4888 42.6375 56.01 42.7913 56.4863C42.9338 56.9325 43.4213 57.27 43.8975 57.1163C44.355 56.9775 44.6888 56.4938 44.535 56.0138Z" fill="#FF681C"/>
<path d="M49.3875 51.4575C49.3875 51.5737 49.3838 51.69 49.3725 51.8062C49.365 51.9075 49.3125 52.2337 49.3725 51.855C49.35 51.9825 49.3313 52.11 49.305 52.2375C49.245 52.5225 49.1663 52.8 49.065 53.0737C49.0388 53.1487 48.9225 53.3812 49.0575 53.1075C49.0163 53.19 48.9825 53.2762 48.9413 53.3587C48.8625 53.52 48.7725 53.6775 48.6788 53.8275C48.6338 53.8987 48.585 53.97 48.5363 54.0412C48.5063 54.0825 48.4688 54.1237 48.4425 54.1687C48.5625 53.9587 48.495 54.0975 48.45 54.1537C48.3188 54.3112 48.1763 54.4612 48.03 54.6C47.9438 54.6787 47.8538 54.7575 47.7638 54.8325C47.7225 54.8662 47.67 54.9412 47.7975 54.8062C47.7525 54.8512 47.685 54.8887 47.6363 54.9225C47.4375 55.0612 47.2238 55.185 47.0063 55.29C46.9613 55.3125 46.9163 55.3312 46.8675 55.3537C46.6763 55.4437 47.0588 55.2825 46.8638 55.3537C46.7738 55.3875 46.6838 55.4212 46.59 55.4512C46.38 55.5187 46.17 55.575 45.9525 55.6125C45.8738 55.6275 45.5813 55.65 45.885 55.6275C45.8025 55.635 45.72 55.6462 45.6375 55.6537C45.4538 55.6687 45.27 55.6762 45.0825 55.6725C44.9213 55.6687 44.76 55.6612 44.5988 55.6425C44.5613 55.6387 44.5275 55.635 44.49 55.6312C44.3363 55.6162 44.7525 55.6687 44.5763 55.6425C44.5125 55.6312 44.445 55.6237 44.3813 55.6087C44.235 55.5825 44.0888 55.5487 43.9463 55.5075C43.4963 55.3725 42.945 55.6687 42.84 56.1375C42.7313 56.6212 42.9863 57.1012 43.47 57.2437C44.7375 57.6225 46.23 57.5437 47.4488 57.0412C49.2263 56.31 50.535 54.7912 51 52.9237C51.1163 52.4475 51.195 51.945 51.195 51.4537C51.1913 50.9812 50.7825 50.5312 50.295 50.5537C49.8038 50.58 49.3875 50.955 49.3875 51.4575Z" fill="#FF681C"/>
<path d="M31.4624 56.43C31.8449 55.245 31.7212 53.895 31.1962 52.7775C30.3899 51.0637 28.5412 50.1525 26.7337 49.965C25.7287 49.86 24.6712 50.0137 23.7299 50.3775C23.5049 50.4637 23.3174 50.5762 23.1937 50.79C23.0812 50.9812 23.0324 51.2662 23.1037 51.4837C23.2424 51.9075 23.7412 52.2937 24.2099 52.1137C24.5924 51.9637 24.9862 51.855 25.3912 51.7837C25.4287 51.7762 25.5074 51.78 25.5374 51.7612C25.4587 51.8137 25.3612 51.78 25.4737 51.7725C25.5712 51.765 25.6687 51.7537 25.7624 51.7462C25.9649 51.735 26.1674 51.7312 26.3662 51.7387C26.4599 51.7425 26.5574 51.75 26.6512 51.7575C26.6999 51.7612 26.7449 51.7687 26.7937 51.7725C26.9512 51.7875 26.7374 51.7687 26.7224 51.7612C26.8049 51.7912 26.9137 51.7912 26.9999 51.81C27.1087 51.8325 27.2174 51.855 27.3262 51.885C27.4874 51.9262 27.6449 51.975 27.7987 52.0312C27.8512 52.05 27.8999 52.0687 27.9524 52.0912C28.0949 52.1475 27.8999 52.0725 27.8887 52.065C27.9599 52.125 28.0949 52.1625 28.1774 52.2037C28.3274 52.2825 28.4699 52.3687 28.6124 52.4625C28.6762 52.5037 28.7362 52.5637 28.8037 52.6012C28.6049 52.5 28.7212 52.5375 28.7849 52.59C28.8262 52.6237 28.8637 52.6575 28.9049 52.6912C29.0437 52.815 29.1637 52.9537 29.2874 53.0887C29.3324 53.1375 29.3924 53.16 29.2612 53.0512C29.2949 53.0812 29.3249 53.1375 29.3474 53.1712C29.4074 53.2575 29.4637 53.3512 29.5199 53.4412C29.5649 53.5237 29.6099 53.6062 29.6474 53.6887C29.6587 53.715 29.6737 53.7637 29.6924 53.79C29.5687 53.6175 29.6474 53.685 29.6812 53.775C29.7412 53.9362 29.7862 54.0975 29.8237 54.2662C29.8424 54.345 29.8537 54.4237 29.8687 54.5062C29.8987 54.6787 29.8499 54.3112 29.8574 54.4312C29.8612 54.4687 29.8649 54.5062 29.8687 54.5475C29.8799 54.6937 29.8874 54.8362 29.8837 54.9825C29.8799 55.1362 29.8687 55.29 29.8537 55.4437C29.8349 55.6462 29.8912 55.2075 29.8574 55.4025C29.8462 55.4587 29.8387 55.5187 29.8274 55.575C29.8012 55.7062 29.7712 55.8337 29.7299 55.9575C29.5874 56.4075 29.8987 56.9587 30.3599 57.0637C30.8474 57.1687 31.3049 56.91 31.4624 56.43Z" fill="#FF681C"/>
<path d="M23.07 51.3937C23.1038 52.7625 23.6025 54.0937 24.45 55.1662C25.6088 56.6362 27.4575 57.3975 29.31 57.3675C29.805 57.36 30.315 57.3075 30.7913 57.1837C31.2488 57.0637 31.5675 56.535 31.4213 56.0775C31.2675 55.6087 30.8025 55.3237 30.315 55.4475C30.21 55.4737 30.105 55.4962 29.9963 55.515C29.955 55.5225 29.9138 55.53 29.8725 55.5337C29.6888 55.5637 30.1575 55.5 29.91 55.5262C29.7863 55.5412 29.6625 55.5487 29.5388 55.5562C29.235 55.5712 28.9275 55.5675 28.6238 55.5375C28.5938 55.5337 28.5638 55.53 28.53 55.5262C28.35 55.5075 28.7625 55.5637 28.5825 55.5337C28.5038 55.5225 28.4213 55.5075 28.3425 55.4925C28.1513 55.455 27.96 55.4062 27.7725 55.35C27.6788 55.32 27.585 55.29 27.495 55.2562C27.4613 55.245 27.4275 55.23 27.3938 55.215C27.21 55.1437 27.585 55.305 27.405 55.2187C27.2138 55.125 27.0263 55.0312 26.8463 54.9187C26.7525 54.8587 26.6588 54.7987 26.5688 54.735C26.52 54.7012 26.3963 54.6337 26.5763 54.7462C26.5238 54.7162 26.475 54.6637 26.43 54.6262C26.2575 54.48 26.0963 54.3225 25.9463 54.1575C25.9275 54.1387 25.77 53.9325 25.7588 53.9362C25.7813 53.9662 25.8075 53.9962 25.83 54.03C25.8075 54 25.785 53.97 25.7625 53.94C25.7288 53.895 25.6988 53.85 25.6688 53.805C25.56 53.6437 25.4625 53.4787 25.3725 53.3062C25.335 53.2312 25.2975 53.1562 25.2638 53.0812C25.245 53.0362 25.2263 52.9912 25.2038 52.9462C25.3125 53.1675 25.26 53.085 25.2413 53.0287C25.1775 52.86 25.1175 52.695 25.065 52.5225C25.02 52.3725 24.9825 52.2187 24.9525 52.065C24.9375 51.9975 24.9263 51.93 24.915 51.8587C24.9 51.7725 24.8775 51.51 24.915 51.885C24.9 51.72 24.8813 51.5587 24.8775 51.3937C24.8663 50.925 24.4725 50.4712 23.9775 50.4937C23.4938 50.5162 23.0588 50.8912 23.07 51.3937Z" fill="#FF681C"/>
<path d="M29.2537 47.8575C28.845 47.2012 27.1612 44.505 27.8737 43.7963C28.6162 43.0538 32.04 44.43 33.54 47.0887C34.59 48.9487 34.7625 51.555 33.9225 51.99C32.9175 52.5075 30.5175 49.8862 29.2537 47.8575Z" fill="#FF681C"/>
</svg>
