<svg width="76" height="71" viewBox="0 0 76 71" fill="none" xmlns="http://www.w3.org/2000/svg">
<g clip-path="url(#clip0_14_292)">
<path d="M34.4113 18.4723C34.7439 18.6417 35.065 18.8338 35.3861 19.026C35.5298 19.1277 35.685 19.2068 35.8287 19.3086C35.873 19.3312 35.8952 19.3425 35.928 19.3878C36.0495 19.4783 35.8287 19.3086 35.8287 19.3086C35.9058 19.3765 35.9945 19.4217 36.0716 19.4896C36.6569 19.9308 37.1968 20.4061 37.7136 20.927C37.9556 21.1648 38.186 21.4253 38.4164 21.6858C38.5591 21.8444 38.2409 21.4819 38.4492 21.7311C38.5041 21.7877 38.5475 21.8671 38.6024 21.9237C38.723 22.071 38.8213 22.207 38.9196 22.343C39.3235 22.9209 39.6937 23.5103 40.0185 24.1339C40.0724 24.2473 40.2363 24.4739 40.245 24.6215C40.245 24.6215 40.137 24.3947 40.191 24.5081C40.2016 24.5422 40.2344 24.5875 40.245 24.6215C40.2883 24.7009 40.3201 24.803 40.3635 24.8824C40.5032 25.2113 40.6092 25.5516 40.7489 25.8805C40.8665 26.1981 40.9503 26.5271 41.0341 26.8562C41.0871 27.0264 41.1063 27.208 41.1593 27.3782C41.1689 27.469 41.1901 27.537 41.1997 27.6279C41.2103 27.6619 41.2094 27.7187 41.22 27.7527C41.2508 27.9116 41.2315 27.73 41.1988 27.6846C41.2527 27.798 41.2594 28.0592 41.2796 28.184C41.2989 28.3656 41.3287 28.5813 41.3479 28.7629C41.3758 29.0921 41.4142 29.4554 41.4084 29.796C41.4131 30.1707 41.4072 30.5114 41.3897 30.8748C41.3771 30.9543 41.3868 31.0451 41.3742 31.1246C41.3848 31.1586 41.3838 31.2154 41.3607 31.2609C41.3607 31.2609 41.3877 30.9883 41.3626 31.1474C41.3481 31.3404 41.3336 31.5335 41.2853 31.738C41.1944 32.465 41.0592 33.1693 40.8458 33.8626C40.787 34.0331 40.7618 34.1921 40.7029 34.3626C40.6788 34.4648 40.6325 34.5558 40.6083 34.6581C40.561 34.8058 40.6441 34.5331 40.6441 34.5331C40.6209 34.5786 40.6083 34.6581 40.5852 34.7036C40.4674 35.0445 40.3159 35.3969 40.1538 35.7153C39.8286 36.4089 39.4474 37.1026 39.0113 37.7397C38.9882 37.7852 38.9544 37.7966 38.9312 37.8421C38.9312 37.8421 39.0914 37.6373 39.0113 37.7397C38.9544 37.7966 38.9081 37.8876 38.8512 37.9445C38.7479 38.0924 38.6331 38.2631 38.5077 38.3997C38.2791 38.6842 38.0388 38.9914 37.788 39.2646C37.5372 39.5379 37.2863 39.8111 37.0249 40.0503C36.9111 40.1641 36.7751 40.2667 36.6497 40.4033C36.831 40.2666 36.4789 40.5741 36.6497 40.4033C36.559 40.4717 36.5021 40.5286 36.4114 40.597C35.8442 41.0528 35.2442 41.4632 34.6336 41.8397C34.487 41.9082 34.351 42.0108 34.2044 42.0793C34.08 42.1592 33.8649 42.3074 33.7192 42.3191C33.8649 42.3074 33.8996 42.2391 33.7868 42.2962C33.753 42.3077 33.7077 42.3419 33.6739 42.3533C33.5948 42.399 33.5273 42.4219 33.4482 42.4675C33.2794 42.5248 33.1212 42.616 32.9524 42.6733C32.2879 42.9363 31.6127 43.1653 30.9164 43.3262C30.8267 43.3378 30.7592 43.3607 30.6695 43.3723C30.6357 43.3838 30.5798 43.3839 30.546 43.3954C30.411 43.4412 30.6695 43.3723 30.6695 43.3723C30.5451 43.4522 30.277 43.4302 30.1419 43.476C29.7832 43.5224 29.4244 43.5689 29.0772 43.5925C28.73 43.6162 28.3606 43.6286 27.9913 43.641C27.8235 43.6415 27.6557 43.642 27.4879 43.6424C27.4097 43.6313 27.3201 43.6429 27.2419 43.6318C27.2082 43.6432 27.1522 43.6434 27.1079 43.6208C27.1522 43.6434 27.3538 43.6314 27.186 43.6319C26.4598 43.5772 25.7346 43.4657 25.0326 43.3087C24.6874 43.2188 24.3422 43.1289 24.0085 43.0163C23.9304 43.0052 23.8417 42.96 23.7636 42.9489C23.6189 42.9039 23.886 42.9826 23.886 42.9826C23.9314 42.9484 23.8205 42.892 23.8205 42.892C23.6537 42.8356 23.4647 42.7681 23.3094 42.689C22.6209 42.3957 21.9778 42.0682 21.3356 41.684C21.1919 41.5822 21.0145 41.4919 20.8709 41.3901C20.8265 41.3675 20.8159 41.3334 20.7715 41.3109C20.7715 41.3109 20.9702 41.4693 20.8709 41.3901C20.7937 41.3221 20.705 41.277 20.6279 41.2091C20.3184 40.9942 20.0426 40.7679 19.7785 40.5188C19.2385 40.0434 18.7661 39.5452 18.2831 39.0128C18.1954 38.9109 18.3487 39.1035 18.3487 39.1035C18.3265 39.0922 18.2937 39.0469 18.261 39.0015C18.206 38.9449 18.1626 38.8656 18.1077 38.8089C17.9872 38.6617 17.8783 38.4917 17.7578 38.3444C17.5611 38.0724 17.376 37.7777 17.191 37.483C17.0059 37.1883 16.8324 36.8709 16.6589 36.5534C16.6049 36.44 16.4516 36.2474 16.443 36.0998C16.443 36.0998 16.5509 36.3266 16.497 36.2132C16.4864 36.1792 16.4536 36.1339 16.443 36.0998C16.4112 35.9977 16.3457 35.9071 16.3139 35.805C16.0566 35.1585 15.833 34.5005 15.6548 33.8084C15.624 33.6495 15.571 33.4794 15.5402 33.3205C15.5306 33.2297 15.5094 33.1616 15.4998 33.0708C15.4892 33.0368 15.4902 32.98 15.4796 32.9459C15.4285 32.6622 15.521 33.1389 15.4902 32.98C15.4401 32.6395 15.3901 32.299 15.34 31.9585C15.2631 31.232 15.2643 30.5166 15.2992 29.7898C15.3118 29.7103 15.3022 29.6195 15.3147 29.54C15.3303 29.2901 15.2886 29.7558 15.3147 29.54C15.3293 29.3469 15.3544 29.1879 15.3689 28.9948C15.4201 28.62 15.482 28.2792 15.5554 27.9156C15.6288 27.552 15.7244 27.1998 15.8315 26.8248C15.8904 26.6543 15.9155 26.4952 15.9744 26.3248C15.987 26.2452 16.0333 26.1543 16.0459 26.0748C16.0932 25.927 16.0101 26.1998 16.0101 26.1998C16.0333 26.1543 16.0459 26.0748 16.069 26.0293C16.3499 25.3131 16.6529 24.6083 17.0562 23.9259C17.2405 23.6188 17.4364 23.289 17.6207 22.9819C17.6439 22.9364 17.6776 22.9249 17.7008 22.8794C17.7008 22.8794 17.5406 23.0843 17.6207 22.9819C17.6892 22.9022 17.7355 22.8112 17.804 22.7315C17.9072 22.5836 18.0442 22.4243 18.1475 22.2764C18.6048 21.7074 19.1064 21.1609 19.6071 20.6713C19.7325 20.5347 19.8685 20.4321 20.0161 20.3068C20.1184 20.2157 19.9254 20.3752 19.9254 20.3752C19.937 20.3524 19.9824 20.3182 20.0277 20.284C20.1184 20.2157 20.1753 20.1587 20.266 20.0903C20.5496 19.8624 20.8553 19.6458 21.1274 19.4407C21.4216 19.2468 21.7158 19.053 21.9984 18.8819C22.1566 18.7906 22.3148 18.6993 22.473 18.608C22.5521 18.5624 22.6196 18.5395 22.6987 18.4938C22.744 18.4597 23.0035 18.334 22.8453 18.4253C22.6649 18.5053 22.9244 18.3797 22.9581 18.3682C23.0372 18.3226 23.1047 18.2997 23.1838 18.254C23.3642 18.174 23.5446 18.0941 23.7133 18.0368C24.0287 17.911 24.3663 17.7965 24.6701 17.6935C25.0077 17.579 25.3559 17.4985 25.7041 17.4181C25.7937 17.4065 25.8613 17.3836 25.951 17.372C25.9847 17.3605 26.0406 17.3603 26.0744 17.3489C26.2094 17.3031 25.951 17.372 25.951 17.372C26.0754 17.2921 26.3551 17.2913 26.5344 17.2681C27.2298 17.164 27.9242 17.1166 28.6292 17.1033C28.797 17.1028 28.9648 17.1023 29.1326 17.1019C29.2445 17.1015 29.3226 17.1127 29.4344 17.1124C29.6244 17.1232 29.4682 17.1009 29.4344 17.1124C29.2445 17.1015 29.4344 17.1124 29.4904 17.1122C29.8366 17.1453 30.1828 17.1784 30.5174 17.2342C31.2426 17.3457 31.9446 17.5027 32.6341 17.7392C32.7122 17.7504 32.8009 17.7956 32.879 17.8067C32.879 17.8067 32.6235 17.7052 32.7566 17.773C32.8009 17.7955 32.8231 17.8068 32.879 17.8067C33.0459 17.863 33.2011 17.942 33.3679 17.9983C33.7238 18.1222 34.0564 18.2916 34.4113 18.4723C34.9879 18.7659 35.8087 18.5252 36.0991 17.8998C36.3896 17.2745 36.1902 16.5143 35.5692 16.1981C32.7527 14.764 29.4845 14.2168 26.3211 14.7253C23.124 15.2452 20.1792 16.6955 17.8139 18.9277C15.4369 21.1826 13.7733 24.2303 13.1252 27.4228C12.4675 30.5245 12.7462 33.8166 13.9605 36.6973C15.2393 39.7254 17.366 42.2402 20.1555 43.9469C22.8562 45.6084 26.0983 46.3715 29.2799 46.1014C32.3719 45.8429 35.413 44.6421 37.8525 42.6482C40.485 40.4947 42.4031 37.6053 43.3213 34.3212C44.1796 31.2643 44.0919 27.9263 43.0917 24.9542C42.0916 21.9821 40.2138 19.3076 37.706 17.4866C37.0098 16.9889 36.3127 16.548 35.5702 16.1413C34.9936 15.8477 34.1728 16.0885 33.8824 16.7138C33.5909 17.3959 33.7797 18.1221 34.4113 18.4723Z" fill="#8BB292"/>
<path d="M21.132 26.2876C21.3432 26.3665 21.5206 26.4568 21.6981 26.5471C21.9642 26.6827 21.566 26.4226 21.7646 26.581C21.8089 26.6036 22.0172 26.8528 21.9082 26.6828C21.755 26.4902 21.9824 26.9211 21.9188 26.7168C21.8755 26.6375 21.8755 26.6375 21.9294 26.7509C21.9092 26.626 21.8986 26.592 21.9082 26.6828C21.9179 26.7736 21.9073 26.7396 21.9208 26.6033C21.8851 26.7283 21.8851 26.7283 21.9314 26.6373C21.9777 26.5464 21.9777 26.5464 21.9198 26.6601C22.0115 26.5349 22.0115 26.5349 21.9198 26.6601C21.4741 27.2063 21.4835 27.9557 21.9781 28.4653C22.0552 28.5332 22.0552 28.5332 22.0003 28.4766C21.9347 28.3859 21.9232 28.4087 21.9887 28.4993C21.9993 28.5334 22.0215 28.5447 22.0321 28.5787C21.9675 28.4313 21.9569 28.3972 21.9887 28.4993C22.0195 28.6582 22.0089 28.6242 22.0003 28.4766C22.0291 28.749 22.038 28.238 22.0109 28.5106C21.9752 28.6356 21.9752 28.6356 22.0109 28.5106C22.0572 28.4197 22.035 28.4084 22.0109 28.5106C21.9993 28.5334 21.9877 28.5561 21.9761 28.5789C22.0794 28.431 22.1025 28.3855 22.034 28.4651C22.0109 28.5106 21.9771 28.5221 21.9318 28.5563C21.9771 28.5221 22.0225 28.4879 22.0456 28.4424C22.0119 28.4539 21.9665 28.488 21.9328 28.4995C21.8537 28.5451 21.8874 28.5337 22.0456 28.4424C21.9897 28.4426 21.9559 28.454 21.9443 28.4768C21.8431 28.5111 21.8431 28.5111 21.9443 28.4768C22.0456 28.4424 22.0456 28.4424 21.9222 28.4655C21.8884 28.4769 21.8662 28.4656 21.8325 28.4771C22.0003 28.4766 22.0225 28.4879 21.9222 28.4655C21.8662 28.4656 21.8219 28.443 21.7659 28.4432C21.6878 28.4321 21.4101 28.3193 21.6657 28.4208C21.2877 28.2856 20.9328 28.1049 20.5886 27.9582C19.8779 27.6537 18.9327 27.9742 18.7945 28.8489C18.5056 30.6779 18.6632 32.5623 19.3609 34.2636C20.1126 36.0782 21.3176 37.5509 22.9317 38.6592C23.9711 39.3602 25.16 39.8224 26.3973 40.0801C27.0771 40.2258 27.7118 39.7471 27.8914 39.0653C27.9407 38.8041 27.7419 39.3042 27.903 39.0426C27.9146 39.0199 27.9377 38.9744 27.9493 38.9516C27.9956 38.8607 27.9725 38.9062 27.8577 39.0768C27.8693 39.0541 27.8808 39.0313 27.9146 39.0199C28.0168 38.9287 27.9715 38.9629 27.8123 39.111C27.8461 39.0995 27.9252 39.0539 27.9368 39.0312C28.0053 38.9515 27.6214 39.1569 27.8577 39.0768C28.0824 39.0194 27.7564 39.1111 27.7342 39.0999L27.9136 39.0766C27.8335 39.1791 27.6012 39.0321 27.8239 39.0882C27.8683 39.1108 27.9464 39.122 28.0023 39.1218C27.9464 39.122 27.714 38.975 27.8799 39.0881C27.9242 39.1107 27.957 39.156 28.0129 39.1558C27.768 39.0884 27.7921 38.9861 27.9242 39.1107C28.0891 39.2805 27.8683 39.1108 27.8808 39.0313L27.9792 39.1673C28.0997 39.3146 27.8722 38.8837 27.9358 39.0879C27.9676 39.19 27.9752 39.3944 27.9262 38.9971C28.0157 39.6441 28.5083 40.2672 29.2258 40.1744C31.8713 39.8604 34.4119 38.4907 36.027 36.306C37.5504 34.2465 38.3333 31.6668 38.0303 29.1356C37.7475 26.7292 36.6343 24.4727 34.8381 22.8995C32.9426 21.247 30.4075 20.3571 27.8759 20.5572C25.1543 20.7465 22.5124 22.1506 20.8076 24.3468C20.3966 24.8249 20.3154 25.6426 20.8669 26.0953C21.3518 26.5141 22.1899 26.5685 22.6472 25.9995C22.9675 25.5898 23.3322 25.2027 23.719 24.8269C23.7306 24.8042 23.9573 24.6332 23.7759 24.77C23.5946 24.9067 23.8212 24.7358 23.855 24.7243C23.9457 24.656 24.0364 24.5876 24.127 24.5192C24.3537 24.3482 24.5688 24.2 24.8061 24.0631C25.0096 23.9376 25.2247 23.7894 25.4273 23.7207C25.1013 23.8125 25.461 23.7093 25.5623 23.6749C25.6973 23.6291 25.8102 23.572 25.9452 23.5262C26.1815 23.4461 26.3956 23.3546 26.6204 23.2972C26.7554 23.2514 26.8788 23.2284 27.0361 23.1939C27.1036 23.171 27.2386 23.1252 26.9685 23.2168C27.0361 23.1939 27.1257 23.1823 27.2154 23.1707C27.7092 23.0784 28.2242 23.0543 28.7277 23.0529C28.7836 23.0527 28.8395 23.0526 28.8955 23.0524C29.1192 23.0518 28.8511 23.0298 28.8173 23.0413C28.9408 23.0182 29.0854 23.0632 29.1973 23.0629C29.4654 23.0849 29.7441 23.1408 30.0006 23.1855C30.2571 23.2302 30.4905 23.3204 30.7576 23.3992C30.8579 23.4216 30.9254 23.3987 30.6911 23.3653C30.747 23.3651 30.8135 23.399 30.8579 23.4216C31.0025 23.4666 31.1356 23.5344 31.2687 23.6021C31.5242 23.7036 31.746 23.8165 31.9784 23.9635C32.0892 24.0199 32.178 24.0651 32.2773 24.1443C32.3216 24.1669 32.3882 24.2008 32.4209 24.2461C32.4653 24.2687 32.5318 24.3026 32.5646 24.3479C32.5202 24.3253 32.4875 24.28 32.4431 24.2574C32.5212 24.2685 32.6861 24.4384 32.741 24.495C32.8403 24.5742 32.9396 24.6534 33.039 24.7326C33.2376 24.891 33.4468 25.0835 33.6222 25.2874C33.71 25.3893 33.7871 25.4572 33.8748 25.5592C33.8854 25.5932 33.9626 25.6611 33.9847 25.6724C33.9847 25.6724 33.7987 25.4345 33.9298 25.6158C34.0831 25.8084 34.2469 26.035 34.3886 26.2504C34.5082 26.4544 34.6277 26.6585 34.7472 26.8625C34.8012 26.9759 34.8552 27.0893 34.9091 27.2027C34.9959 27.3614 34.78 26.9078 34.8985 27.1687C34.9419 27.248 34.9631 27.3161 35.0065 27.3954C35.1886 27.8605 35.337 28.337 35.4294 28.8136C35.4284 28.8704 35.4612 28.9157 35.4602 28.9725C35.5122 29.1994 35.4612 28.9157 35.439 28.9044C35.4718 28.9497 35.4785 29.2109 35.4997 29.2789C35.5285 29.5514 35.5468 29.7898 35.5534 30.0509C35.5717 30.2893 35.5562 30.5392 35.5523 30.7663C35.5609 30.9138 35.6052 30.9364 35.5638 30.7435C35.5744 30.7775 35.5503 30.8798 35.5387 30.9026C35.5252 31.0388 35.5116 31.1751 35.4865 31.3342C35.4372 31.5955 35.3996 31.834 35.3281 32.084C35.304 32.1863 35.2682 32.3113 35.2441 32.4136C35.22 32.5158 35.1823 32.7544 35.1138 32.834C35.1823 32.7544 35.2074 32.5953 35.1485 32.7658C35.1138 32.834 35.1012 32.9136 35.0665 32.9818C35.0086 33.0955 34.9729 33.2205 34.9034 33.357C34.776 33.6071 34.6486 33.8573 34.5097 34.1302C34.4402 34.2666 34.337 34.4145 34.2453 34.5397C34.3601 34.369 34.0726 34.824 34.2453 34.5397C34.1768 34.6194 34.1305 34.7103 34.0736 34.7673C33.8903 35.0176 33.6848 35.2566 33.4571 35.4843C33.3317 35.621 33.2179 35.7348 33.0818 35.8374C33.0365 35.8716 32.9796 35.9285 32.9343 35.9627C32.7297 36.145 33.1272 35.8032 32.8889 35.9969C32.6506 36.1906 32.3902 36.373 32.1298 36.5554C32.0844 36.5896 31.3388 37.0118 31.3388 37.0118C31.3388 37.0118 31.5645 36.8976 31.3726 37.0004C31.2935 37.046 31.1922 37.0804 31.1247 37.1033C30.9781 37.1718 30.8431 37.2176 30.6964 37.2861C30.4148 37.4005 30.1226 37.4808 29.8303 37.5611C29.7628 37.584 29.6731 37.5956 29.6056 37.6185C29.5159 37.6301 29.5381 37.6414 29.6953 37.6069C29.6615 37.6183 29.6056 37.6185 29.5719 37.6299C29.4146 37.6644 29.2353 37.6877 29.0675 37.6881C29.5081 38.0843 29.9487 38.4805 30.3671 38.8654C30.2189 37.7303 29.3966 36.7675 28.2587 36.589C26.9086 36.3884 25.7298 37.2774 25.416 38.6068C25.9253 38.2647 26.4008 37.9341 26.9101 37.592C26.6536 37.5473 26.4309 37.4911 26.1859 37.4237C26.0634 37.39 25.9632 37.3676 25.8523 37.3111C25.7076 37.2661 25.8744 37.3224 25.8966 37.3337C25.8301 37.2998 25.752 37.2887 25.6854 37.2548C25.2409 37.0857 24.8417 36.8825 24.4435 36.6224C24.3548 36.5772 24.2998 36.5206 24.2111 36.4755C24.0781 36.4077 24.2883 36.5434 24.2883 36.5434C24.2555 36.498 24.1889 36.4642 24.1446 36.4416C23.9787 36.3285 23.8467 36.204 23.6808 36.0909C23.3945 35.8305 23.086 35.5589 22.8449 35.2643C22.8122 35.219 22.79 35.2077 22.7572 35.1624C22.6695 35.0604 22.8228 35.253 22.8228 35.253C22.7794 35.1737 22.6917 35.0717 22.6367 35.0151C22.5162 34.8678 22.4295 34.7091 22.309 34.5619C22.2 34.3918 22.1133 34.2331 22.0265 34.0744C21.9832 33.995 21.9398 33.9157 21.8964 33.8363C21.8636 33.791 21.7239 33.4621 21.7991 33.6436C21.8858 33.8023 21.7557 33.5642 21.7567 33.5074C21.7249 33.4053 21.6815 33.3259 21.6497 33.2238C21.5745 33.0424 21.5216 32.8722 21.4686 32.702C21.4156 32.5319 21.3742 32.339 21.3212 32.1688C21.3116 32.078 21.2904 32.0099 21.2586 31.9078C21.249 31.817 21.2509 31.7034 21.2576 31.9646C21.2586 31.9078 21.2374 31.8397 21.2384 31.783C21.1671 31.3744 21.1412 30.9316 21.1481 30.5342C21.152 30.3071 21.1781 30.0913 21.182 29.8642C21.182 29.8642 21.1665 30.114 21.1801 29.9777C21.1926 29.8982 21.1936 29.8414 21.2062 29.7619C21.2082 29.6484 21.2439 29.5234 21.2458 29.4098C20.6478 29.7067 20.0498 30.0036 19.4518 30.3005C20.0737 30.5599 20.661 30.8876 21.3186 31.022C22.0207 31.179 22.7835 31.0519 23.3835 30.6415C24.7648 29.6838 24.8088 27.7874 23.7098 26.655C23.7327 27.2681 23.7451 27.8472 23.768 28.4603C24.4762 27.618 24.6298 26.4935 24.1315 25.5525C23.7855 24.8608 23.0219 24.386 22.344 24.1268C21.7326 23.9014 20.9697 24.0284 20.6561 24.6993C20.3464 25.143 20.4763 26.0396 21.132 26.2876Z" fill="#8BB292"/>
<path d="M42.5268 40.1597C42.1955 41.8525 44.1732 42.6304 45.3949 43.1379C46.0613 43.4199 46.7391 43.6792 47.3939 43.9839C48.3591 44.4468 49.3127 44.9323 50.3117 45.3837C52.2981 46.3092 54.2854 47.178 56.2834 48.0807C57.2824 48.5321 58.2813 48.9835 59.2687 49.4576C60.1674 49.8866 61.0681 50.202 62.0712 49.7677C63.0184 49.3335 63.8278 48.457 64.0248 47.4118C64.2576 46.2416 63.6137 45.3123 62.6736 44.6904C62.0208 44.2721 61.231 44.0132 60.5098 43.6746C59.6217 43.2797 58.7568 42.8393 57.8918 42.3989C56.2285 41.5519 54.5777 40.6255 52.926 39.7558C51.74 39.1233 50.554 38.4907 49.4027 37.79C48.3951 37.191 47.1994 36.4677 46.0152 36.3802C45.2331 36.3256 44.4441 36.6684 44.1169 37.4755C44.0349 37.6915 43.9644 37.8847 43.9046 38.112C43.8814 38.1575 43.81 38.4075 43.892 38.1915C43.9625 37.9983 43.8109 38.3507 43.7878 38.3962C43.7646 38.4417 43.6035 38.7033 43.6951 38.5781C43.7868 38.453 43.6951 38.5781 43.6836 38.6009C43.6382 38.6351 43.6035 38.7033 43.5582 38.7375C43.5012 38.7944 43.4443 38.8513 43.3874 38.9083C43.3189 38.988 43.0691 39.2044 43.3874 38.9083C42.9552 39.3183 42.6928 39.6142 42.5268 40.1597C42.3366 40.8075 42.8494 41.5554 43.4965 41.6558C44.2217 41.7673 44.7773 41.3343 44.9907 40.641C44.9549 40.766 44.8951 40.9933 44.7822 41.0504C44.816 41.0389 44.8507 40.9707 44.8845 40.9593C44.8961 40.9365 44.9182 40.9478 44.9298 40.9251C44.68 41.1415 44.7253 41.1073 45.0205 40.8567C45.0658 40.8225 45.1227 40.7656 45.1681 40.7314C45.5318 40.4011 45.8299 39.9801 46.0277 39.5367C46.1898 39.2183 46.297 38.8433 46.3926 38.4911C46.4167 38.3888 46.5094 38.2069 46.3347 38.6048C46.3926 38.4911 46.4833 38.4227 46.2546 38.7072C46.4032 38.5251 45.9488 38.9238 46.107 38.8325C46.243 38.7299 45.7463 38.9925 45.9604 38.901C45.6007 39.0043 45.6576 38.9473 45.7916 38.9583C45.8254 38.9468 45.8697 38.9694 45.9035 38.958C45.645 39.0268 45.591 38.9134 45.7579 38.9697C45.8022 38.9923 45.8582 38.9922 45.9141 38.992C45.9922 39.0032 46.0809 39.0483 46.159 39.0595C46.3037 39.1045 46.3133 39.1953 46.0703 39.0143C46.1369 39.0482 46.2371 39.0706 46.3037 39.1045C46.8147 39.3074 47.2689 39.5673 47.7568 39.8157C48.6651 40.3355 49.5397 40.8667 50.4595 41.3637C52.0004 42.177 53.5297 43.0129 55.0589 43.8489C56.622 44.6734 58.2188 45.4864 59.8397 46.1972C60.1839 46.3439 60.5282 46.4905 60.8724 46.6372C60.9833 46.6936 61.0942 46.7501 61.2051 46.8065C61.2716 46.8404 61.3382 46.8743 61.4047 46.9082C61.7036 47.089 61.2726 46.7836 61.4491 46.9308C61.504 46.9874 61.559 47.044 61.6255 47.0779C61.8241 47.2363 61.4732 46.8285 61.6033 47.0666C61.745 47.2819 61.5185 46.7943 61.5927 47.0325C61.6775 47.3048 61.5639 46.7601 61.5821 46.9985C61.6129 47.1574 61.5156 46.9646 61.5841 46.885C61.5725 46.9077 61.5358 47.0895 61.5242 47.1122C61.5474 47.0667 61.5599 46.9872 61.5831 46.9417C61.5599 46.9872 61.5368 47.0327 61.5136 47.0782C61.4905 47.1237 61.4673 47.1692 61.4442 47.2146C61.559 47.044 61.5705 47.0213 61.4905 47.1237C61.4336 47.1806 61.3766 47.2375 61.3419 47.3058C61.5792 47.1688 61.148 47.522 61.3419 47.3058C61.3303 47.3285 61.1384 47.4312 61.1384 47.4312C61.1384 47.4312 61.4094 47.2829 61.1499 47.4085C60.9358 47.4999 61.3959 47.4192 61.1162 47.4199C60.8028 47.4322 61.3611 47.4874 61.0824 47.4314C61.0381 47.4088 60.9821 47.409 60.9262 47.4091C60.6919 47.3757 61.2145 47.5559 60.9484 47.4204C60.0835 46.98 59.1838 46.6078 58.3073 46.1902C56.5205 45.3663 54.6884 44.5766 52.9016 43.7527C51.8805 43.2901 50.8931 42.8159 49.8835 42.3305C49.0957 41.958 48.3417 41.5741 47.5423 41.2243C46.876 40.9423 46.1759 40.6718 45.5212 40.367C45.3659 40.288 45.2329 40.2202 45.0998 40.1525C45.0554 40.1299 44.9783 40.062 44.9339 40.0394C45.122 40.1638 45.1547 40.2091 45.0554 40.1299C45.0333 40.1186 45.0005 40.0733 44.9783 40.062C44.9339 40.0394 44.9012 39.9941 44.8684 39.9488C44.7247 39.847 45.0756 40.2547 44.9339 40.0394C44.8472 39.8807 45.0515 40.357 44.9985 40.1868C45.0274 40.4593 45.0486 40.5273 45.0283 40.4025C45.0013 40.6751 44.9887 40.7546 45.0244 40.6296C45.1587 39.982 44.724 39.2452 44.0547 39.1335C43.3517 39.0333 42.662 39.4553 42.5268 40.1597Z" fill="#8BB292"/>
<path d="M42.7758 39.3415C42.6196 39.3192 42.4412 39.2857 42.2965 39.2406C42.2522 39.2181 42.2184 39.2295 42.1741 39.2069C42.0516 39.1732 42.3409 39.2632 42.3409 39.2632C42.3071 39.2747 42.1741 39.2069 42.1297 39.1843C42.041 39.1392 41.9745 39.1053 41.8858 39.0601C41.8636 39.0488 41.8086 38.9922 41.7749 39.0037C41.8752 39.0261 41.9735 39.1621 41.8192 39.0262C41.7643 38.9696 41.7093 38.913 41.6544 38.8564C41.4673 38.6752 41.7739 39.0604 41.6871 38.9017C41.6544 38.8564 41.6216 38.8111 41.6004 38.743C41.5782 38.7317 41.5349 38.6523 41.5464 38.6296C41.5464 38.6296 41.664 38.9472 41.611 38.777C41.612 38.7202 41.5792 38.6749 41.5686 38.6409C41.5686 38.6409 41.559 38.5501 41.5368 38.5388C41.5368 38.5388 41.5878 38.8225 41.5782 38.7317C41.5802 38.6181 41.56 38.4933 41.5619 38.3797C41.5639 38.2662 41.5358 38.5956 41.5358 38.5956C41.5474 38.5728 41.5484 38.516 41.56 38.4933C41.561 38.4365 41.5841 38.391 41.5735 38.357C41.5977 38.2547 41.6218 38.1525 41.6459 38.0502C41.729 37.7775 41.6691 38.0047 41.6459 38.0502C41.5523 38.2889 41.6112 38.1185 41.6344 38.073C41.6691 38.0047 41.7038 37.9365 41.7164 37.857C41.7743 37.7433 41.8322 37.6296 41.8901 37.5159C41.9248 37.4476 41.9712 37.3567 42.0059 37.2884C42.0291 37.243 42.0522 37.1975 42.0976 37.1633C42.1439 37.0723 41.9596 37.3794 41.9712 37.3567C41.9827 37.3339 42.0059 37.2884 42.0397 37.277C42.1081 37.1973 42.1766 37.1176 42.2567 37.0152C42.3021 36.981 42.3252 36.9356 42.359 36.9241C42.4043 36.8899 42.4728 36.8102 42.3136 36.9583C42.1207 37.1178 42.2567 37.0152 42.3021 36.981C42.3474 36.9468 42.3927 36.9127 42.4265 36.9012L42.5056 36.8556C42.5056 36.8556 42.2461 36.9812 42.3252 36.9356C42.3812 36.9354 42.4265 36.9012 42.4718 36.867C42.5056 36.8556 42.5393 36.8441 42.5731 36.8327C42.686 36.7756 42.304 36.8675 42.4159 36.8672C42.4718 36.867 42.5615 36.8554 42.6175 36.8553C42.6512 36.8438 42.6734 36.8551 42.7071 36.8436C42.8528 36.8319 42.5172 36.8328 42.5509 36.8214C42.5963 36.7872 42.7631 36.8435 42.8074 36.8661C42.8856 36.8772 42.9858 36.8996 43.0524 36.9335C43.1527 36.9559 43.1739 37.024 42.9521 36.9111C42.9743 36.9224 43.0186 36.945 43.063 36.9676C43.1295 37.0014 43.196 37.0353 43.2626 37.0692C43.3513 37.1144 43.4178 37.1482 43.4949 37.2161C43.5393 37.2387 43.6386 37.3179 43.4728 37.2048C43.2848 37.0805 43.4949 37.2161 43.5055 37.2502C43.5605 37.3068 43.627 37.3407 43.682 37.3973C43.7148 37.4426 43.9124 37.6578 43.7813 37.4765C43.6386 37.3179 43.7813 37.4765 43.8025 37.5446C43.8353 37.5899 43.9538 37.8507 43.868 37.6352C43.7495 37.3744 43.9538 37.8507 43.92 37.8622C43.8979 37.8509 43.9028 37.567 43.8786 37.6693C43.8671 37.692 43.8777 37.726 43.8883 37.7601C43.8873 37.8168 43.8969 37.9076 43.8959 37.9644C43.9151 38.146 43.9356 37.6123 43.8979 37.8509C43.8969 37.9076 43.8737 37.9531 43.8843 37.9872C43.8602 38.0894 43.836 38.1917 43.8119 38.2939C43.7878 38.3962 43.9412 37.9302 43.8592 38.1462C43.836 38.1917 43.8129 38.2372 43.7897 38.2827C43.755 38.3509 43.7087 38.4418 43.6739 38.5101C43.6045 38.6465 43.5466 38.7602 43.4549 38.8854C43.4317 38.9309 43.4086 38.9764 43.3854 39.0218C43.259 39.2152 43.6256 38.7146 43.4771 38.8967C43.4086 38.9764 43.3401 39.056 43.26 39.1585C43.2147 39.1926 43.1578 39.2496 43.1346 39.2951C43.0208 39.4089 43.4066 39.0899 43.2253 39.2267C43.1799 39.2609 43.123 39.3178 43.0555 39.3407C43.0217 39.3522 43.0102 39.3749 42.9764 39.3863C42.8404 39.4889 43.123 39.3178 43.123 39.3178C43.123 39.3178 42.9426 39.3978 42.9205 39.3865C42.8867 39.398 42.853 39.4094 42.853 39.4094C42.6504 39.4781 42.9311 39.4205 42.9764 39.3863C42.9311 39.4205 42.8192 39.4209 42.7633 39.421C42.6977 39.3304 42.3737 39.3086 42.7758 39.3415C42.4296 39.3084 42.1384 39.3319 41.8442 39.5258C41.5837 39.7082 41.3319 40.0382 41.2817 40.3563C41.2314 40.6743 41.2477 41.0263 41.4444 41.2982C41.6188 41.5589 41.9052 41.8193 42.2514 41.8524C43.1338 41.9294 43.9979 41.768 44.7127 41.1869C45.2008 40.7767 45.5665 40.3329 45.856 39.7643C46.5035 38.5475 46.7199 37.0254 45.8224 35.8811C45.1766 35.0654 44.2143 34.4322 43.1535 34.3216C42.651 34.2663 42.1698 34.279 41.6856 34.462C41.2468 34.6109 40.8841 34.8844 40.532 35.192C39.8162 35.8298 39.2594 36.9782 39.0865 37.9212C38.8894 38.9663 39.1524 39.9308 39.8436 40.7123C40.4144 41.3465 41.369 41.7753 42.2176 41.8638C42.5417 41.8856 42.8551 41.8734 43.1493 41.6795C43.4097 41.4971 43.6615 41.1671 43.7118 40.849C43.8239 40.1901 43.4682 39.4077 42.7758 39.3415Z" fill="#8BB292"/>
</g>
<defs>
<clipPath id="clip0_14_292">
<rect width="47.6974" height="60.9983" fill="white" transform="translate(0 42.5047) rotate(-63.0157)"/>
</clipPath>
</defs>
</svg>
